<?xml version="1.0" encoding="utf-8"?>
<!-- Generator: Adobe Illustrator 24.2.0, SVG Export Plug-In . SVG Version: 6.00 Build 0)  -->
<svg version="1.1" id="Layer_1" xmlns="http://www.w3.org/2000/svg" xmlns:xlink="http://www.w3.org/1999/xlink" x="0px" y="0px"
	 viewBox="0 0 1920 1080" style="enable-background:new 0 0 1920 1080;" xml:space="preserve">
<style type="text/css">
	.st0{opacity:0.38;}
	.st1{fill:#7BC7FF;}
	.st2{opacity:0.1;}
	.st3{fill:url(#SVGID_1_);}
	.st4{fill:#29BADF;}
	.st5{fill:url(#SVGID_2_);}
	.st6{fill:url(#SVGID_3_);}
	.st7{opacity:0.5;fill:#DEF6FF;}
	.st8{fill:url(#SVGID_4_);}
	.st9{fill:#EF7641;}
	.st10{fill:#E86A3F;}
	.st11{fill:#FCCB95;}
	.st12{fill:#FFFFFF;}
	.st13{fill:#1D1D1B;}
	.st14{fill:#002A72;}
	.st15{fill:#F9CB98;}
	.st16{fill:#FED8A7;}
	.st17{stroke:#0A507F;stroke-width:0.7387;stroke-miterlimit:10;}
	.st18{fill:#29ABE2;}
	.st19{fill:#F2F2F2;}
	.st20{fill:#FE9901;}
	.st21{fill:#1C3356;}
	.st22{opacity:0.6;fill:#405270;}
	.st23{opacity:0.6;fill:#FFFFFF;}
	.st24{opacity:0.5;fill:#A5AEBC;}
	.st25{opacity:0.5;fill:#FFFFFF;}
	.st26{opacity:0.5;fill:#FEB546;}
	.st27{fill:#FFD18D;}
</style>
<g class="st0">
	<path class="st1" d="M1506.25,633.64c-19.31-53.82-49.7-70.2-78.62-104.72c-35.31-42.16-59.13-72.81-49.97-127.05
		c14.98-88.62,21.4-309.63-213.21-280.74c-84.09,10.36-150.54,74.8-198.88,139.12c-41.13,54.73-115.13,59.56-174.69,72.32
		c-73.18,15.68-147.72,39.36-215.42,74.06c-139.44,71.47-181.08,174.21-175.4,305.66c1.72,39.71,7.34,102.27,74.43,175.47
		c90.55,98.8,222.13,112.03,380.5,66.66c36.25-10.39,70.52-26.68,106.18-38.94c37.05-12.74,75.59-21.11,114.59-24.88
		c90.96-8.79,185.24,7.11,272.5-20.05c46.14-14.36,88.51-40.64,121.88-75.59C1511.8,751.31,1526.62,690.45,1506.25,633.64z"/>
</g>
<g>
	<g>
		<g class="st2">
			<g>
				<path d="M573.53,676.47c22.53,13,22.6,34.05,0.3,47c-22.33,12.99-58.55,12.99-81.09-0.03c-22.47-12.96-22.56-33.97-0.26-46.92
					C514.78,663.56,551.1,663.53,573.53,676.47z"/>
			</g>
		</g>
		<linearGradient id="SVGID_1_" gradientUnits="userSpaceOnUse" x1="544.3093" y1="645.6863" x2="546.3856" y2="788.9525">
			<stop  offset="0" style="stop-color:#43D9E5"/>
			<stop  offset="0.2589" style="stop-color:#3FD4E4"/>
			<stop  offset="0.5575" style="stop-color:#33C6E1"/>
			<stop  offset="0.8747" style="stop-color:#20AFDD"/>
			<stop  offset="1" style="stop-color:#17A4DB"/>
		</linearGradient>
		<path class="st3" d="M601.48,634.43l-114.64,1.81l13.79,71.07h0.21c0.95,5.64,5.16,11.13,12.66,15.45
			c17.07,9.86,44.59,9.86,61.51,0.02c7.44-4.32,11.6-9.82,12.48-15.48h0.05L601.48,634.43z"/>
		<g>
			<g>
				<path class="st4" d="M584.54,610.95c22.53,13,22.59,34.06,0.3,47.01c-22.32,12.95-58.55,12.95-81.08-0.05
					c-22.48-12.97-22.59-33.96-0.28-46.91C525.79,598.03,562.09,598.01,584.54,610.95z"/>
			</g>
		</g>
		<g>
			<g>
				<linearGradient id="SVGID_2_" gradientUnits="userSpaceOnUse" x1="500.6365" y1="634.4592" x2="584.4683" y2="634.4592">
					<stop  offset="0" style="stop-color:#6474D6"/>
					<stop  offset="1" style="stop-color:#1B4B92"/>
				</linearGradient>
				<path class="st5" d="M572.08,617.28c16.49,9.51,16.49,24.85,0.17,34.36c-16.27,9.46-42.78,9.46-59.25-0.04
					c-16.41-9.5-16.5-24.81-0.21-34.32C529.11,607.84,555.67,607.82,572.08,617.28z"/>
			</g>
		</g>
		<linearGradient id="SVGID_3_" gradientUnits="userSpaceOnUse" x1="501.0989" y1="349.4753" x2="521.8624" y2="696.2264">
			<stop  offset="0" style="stop-color:#1B4B92"/>
			<stop  offset="1" style="stop-color:#6474D6"/>
		</linearGradient>
		<path class="st6" d="M524.22,618.05c-9.82-14.04-53.98-23.85-37.37-57.46c16.61-33.61-7.5-33.96-16.78-67.18
			c-9.28-33.23,26.3-15.75,13.6-61.77c-12.88-46.7,9.67-67.62,28.81-55.03c25.42,16.71,38.3,54.69,35.11,94.12
			c-3.19,39.43-3.83,42.71,1.97,81.66c5.81,38.95-9.05,85.64-16.4,87.72C525.81,642.2,527.63,622.93,524.22,618.05z"/>
		<path class="st7" d="M528.94,569.71l-0.22-0.29c-0.62-5.51-1.3-11.05-2.02-16.6l7.62-27.47l-1.82-0.51l-6.43,23.18
			c-1.86-13.74-3.96-27.4-6.14-40.43l-0.24,2.5l8.5-30.72l-1.82-0.51l-7.01,25.26c-2.31-13.63-4.65-26.47-6.84-37.86l7.82-28.18
			l-1.83-0.51l-6.79,24.5c-4.94-25.41-8.83-42.59-8.94-43.08l-1.85,0.42c0.12,0.53,4.53,19.98,9.91,48.11l-15.06-20.26l-1.52,1.13
			l17.39,23.4c2.78,14.66,5.75,31.41,8.52,48.95l-16.61-22.34l-1.52,1.13l18.88,26.07l-0.49-3.11c1.55,9.91,3.02,20.04,4.35,30.18
			l-0.14,0.49l0.21,0.05c0.57,4.4,1.12,8.79,1.63,13.17l-15.07-20.29l-1.52,1.13l17.02,22.9c2.87,25.46,4.5,50.05,3.66,69.93
			l1.89,0.08c0.85-19.99-0.8-44.73-3.68-70.32L528.94,569.71z"/>
		<linearGradient id="SVGID_4_" gradientUnits="userSpaceOnUse" x1="535.6984" y1="535.0991" x2="633.2427" y2="535.0991">
			<stop  offset="0" style="stop-color:#6474D6"/>
			<stop  offset="1" style="stop-color:#1B4B92"/>
		</linearGradient>
		<path class="st8" d="M552.14,624.86c10.9-9.47,49.03-8.45,42.32-39.34c-6.71-30.89,13.08-26.24,27.47-51.51
			c14.39-25.28-18.29-18.26,1.51-53.3c20.09-35.56,5.92-57.28-12.31-50.9c-24.21,8.47-42.51,36.9-47.97,69.8
			c-5.46,32.91-5.6,35.72-18.32,66.38c-12.72,30.67-10.12,71.9-4.54,75.09C545.9,644.29,548.35,628.16,552.14,624.86z"/>
		<path class="st7" d="M558.18,584.37l0.23-0.19c1.63-4.38,3.32-8.77,5.05-13.16l-0.62-24.03l1.6-0.04l0.52,20.28
			c4.33-10.86,8.84-21.6,13.29-31.81l-0.31,2.1l-0.67-26.86l1.59-0.04l0.57,22.1c4.68-10.68,9.23-20.7,13.34-29.57l-0.62-24.64
			l1.59-0.04l0.54,21.43c9.24-19.78,15.94-33.03,16.13-33.41l1.43,0.72c-0.21,0.41-7.79,15.42-17.95,37.32l16.46-13.49l1.01,1.24
			l-19.01,15.58c-5.28,11.43-11.13,24.51-16.99,38.3l18.15-14.88l1.01,1.23l-20.77,17.46l1.03-2.45c-3.3,7.79-6.57,15.77-9.73,23.79
			l0.01,0.43l-0.19,0c-1.37,3.48-2.71,6.96-4.03,10.44l16.48-13.5l1.02,1.23l-18.61,15.25c-7.55,20.24-13.93,40.02-17.3,56.44
			l-1.57-0.32c3.39-16.53,9.81-36.42,17.4-56.77L558.18,584.37z"/>
	</g>
	<g>
		<path class="st9" d="M1102.9,606.67c-0.74-33.88-23.26-67.24-67.75-93.09c-24.76-14.4-38.21-19.58-69.12-27.03l0,0
			c0,0-150.43-40.54-169.37-129.57c-8.86-41.65-53-33.8-68.2-15.34c0,0-109.12,146.37-92.27,279.81
			c12.46,98.7,41.86,128.15,110.23,166.35c34.56,17.26,106.45,21.72,106.45,21.72c54.49,2.38,110.47-12.2,152.28-36.33
			c15.16-8.76,27.27-18.61,36.42-29.1l0.13-0.04c0,0,60.82-57.29,61.35-135.22C1103.03,608.1,1102.96,607.39,1102.9,606.67z"/>
		<path class="st10" d="M746.41,787.81c34.56,17.26,106.45,21.72,106.45,21.72c54.49,2.38,110.47-12.2,152.28-36.33
			c15.16-8.76,27.27-18.61,36.42-29.1l0.13-0.04c0,0,60.82-57.29,61.35-135.22c0-0.31-0.02-0.59-0.05-0.89
			c-23.71,147.46-260.23,195.37-356.58,136.11c-72.58-44.63-105.19-87.21-93.33-229.76c2.8-33.62,15.32-65.92,14.89-64.92l-0.06,0.1
			c-21.72,50.5-39.23,112.52-31.72,171.99C648.64,720.16,678.04,749.61,746.41,787.81z"/>
	</g>
	<g>
		<path class="st11" d="M988.16,537.03c-1.89-1.12-3.75-2.4-5.66-3.64c-1.9-1.23-3.73-2.62-5.73-3.76
			c-0.09-0.07-0.25-0.12-0.42-0.24c-5.99-6.23-18.55-10.64-24.22-14.01l-3.52,4.94c-6.02,8.26-4.31,21.94-1.29,27.44
			c1.07,2.69,1.84,5.85,4.26,7.47c3.37,2.3,4.89,3.72,8.25,5.48c2.74,1.45,4.67,4.54,7.38,6.02c2.52,1.37,6.7,2.71,6.92-1.76
			c0.14-2.66-5.03-5.83-6.65-7.27c-1.33-1.24-2.73-2.86-4.02-4.68c0.74-0.33,1.5-0.68,2.25-1.1c1.44,0.3,2.72,1.56,4.03,2.27
			c1.42,0.78,2.77,1.6,4.18,2.38c1.7,0.92,4.02,1.38,5.06,3.13c2.37,3.98,4.15,7.77,7.33,11.12c1.31,1.37,4.68,1.79,4.91-1.03
			c0.1-1.39-0.71-2.57-1.26-3.87c-0.59-1.34-0.95-2.73-1.47-4.11c-0.1-0.27-0.18-0.49-0.3-0.75c0.73,1.01,1.41,1.98,2.02,2.94
			c1.05,1.63,2.65,4.92,4.8,5.69c2.95,1.03,4.3-1.53,3.54-4.35c-0.21-0.72-0.54-1.43-0.95-2.19c0.3,0.17,0.61,0.36,0.95,0.48
			c0.71,0.28,2.41,0.35,2.93-0.66c0.33-0.66-0.39-2.42-0.62-3c-0.64-1.56-1.36-3.09-1.94-4.68c-0.6-1.65-1.23-2.84-2.23-4.06
			c1.11,0.59,2.75,1.44,3.37,0.25c0.27-0.51-0.32-1.81-0.47-2.35c-0.3-1.12-0.69-1.46-1.42-2.37c-1.92-2.46-3.52-4.88-5.85-7.02
			C991.09,538.62,989.63,537.91,988.16,537.03z"/>
		<path class="st11" d="M905.08,453.95l-2.78-22.45l-31.75,26.15l7.9,29.48l66.99,45.16l22.41-7.9
			C942.55,496.87,924.22,469.86,905.08,453.95z"/>
		<path class="st12" d="M898.87,403.79c-0.89-34.18-15.98-50.75-35.22-50.75l-12.28,33l19.18,71.61
			c16.33-5.38,27.52-13.74,31.75-26.15L898.87,403.79z"/>
	</g>
	<g>
		<path class="st13" d="M1083.82,829.64l15.98,18.94c0,11.46,2.27,21.95,7.74,31.1c1.36,2.28,3.7,3.84,6.35,4.04
			c9.07,0.7,16.77-1.84,24.09-5.25c17.63,5.86,36.65,2.06,56.23-5.62c11.28-4.82,17.75-11.74,20.78-20.16
			c0.81-2.26,0.45-4.78-0.92-6.75l-0.5-0.71c-2.67-3.83-7.06-6.1-11.73-6.07l-38.11,0.25l-27.73-12.95l-24.65-18.71l-27.52,20.72
			V829.64z"/>
		<path class="st13" d="M959.82,890.01v13.48c-4.27,7.76-6.63,16.34-5.33,26.47c2.6,6,7.36,9.38,13.61,10.95
			c9.28,22.71,23.26,34.14,40.45,37.88c13.13,1.96,22.29,0.47,25.84-5.92c3.84-12.57-6.12-25.51-17.16-38.47
			c-7.75-10.2-11.36-20.87-13.33-30.22l-4.72-23.05h-39.36V890.01z"/>
		<path class="st14" d="M1007.55,797.26c-1.28,33.59-3.27,69.6-2.45,106.53c-22.19,7.95-49.15,4.44-50-7.28
			c-3.05-57.17-13.42-112.32-5.15-147.73c1.35-5.86,3.23-11.15,5.72-15.84l-39.74-40.98l-80.82-83.38l19.53-14.7l25.99-19.6
			l2.66-2.02l32.56-6.29c0.68,0.46,1.35,0.89,1.99,1.35c1.42,0.96,2.81,1.92,4.15,2.95c4.01,2.88,7.88,5.93,11.61,9.13
			c12.75,10.87,23.62,23.08,32.99,36.19c4.26,5.97,8.2,12.11,11.86,18.36c5.04,8.66,9.48,17.54,13.49,26.56
			c4.3,9.8,8.06,19.74,11.36,29.76c2.59,12.54,4.01,26.03,4.69,40.34c0.5,10.01,0.6,20.42,0.5,31.18
			C1008.4,773.25,1008.01,785.07,1007.55,797.26z"/>
		<path class="st14" d="M1135.99,826.44c-5.36,10.55-15.27,22.09-24.96,28.16c-2.98,1.88-5.97,3.27-8.77,3.91
			c-4.01,0.89-7.71,0.35-10.62-2.24c-32.1-30.58-62.96-63.53-83.13-94.5c-13.42-20.56-22.16-40.27-23.4-57.78l-69.18-12.04
			l-55.54-9.69c-40.34-5.33-69.03-34.8-70.13-72.23c-0.21-6.21,0.36-12.64,1.78-19.21l88.6-16.55l37.22-6.96l2.98-0.57
			c0.14,1.28,0.57,2.45,1.17,3.52c2.38,4.19,7.71,6.89,11.61,9.13c-1.88,4.26-4.33,7.95-7.24,11.19c-4.76,5.18-10.76,9.05-18,11.72
			c30.89,9.3,49.47,18.93,70.1,31.64c8.7,5.4,17.76,11.33,28.27,18c3.09,1.95,6.32,3.98,9.73,6.11c4.51,2.81,8.38,6.6,11.26,11.04
			C1067.95,731.1,1102.51,786.39,1135.99,826.44z"/>
		<path class="st12" d="M933.69,579.43c-7.63,1.53-15.2,3.91-22.62,6.82c-47.19,18.57-89.74,58.38-120.52,28.55
			c-7-40.31-16.9-78.34-32.53-111.86l-12.14-29.72l-19.82-48.4c18.54-29.08,43.08-53.76,76.92-71.63c23.08-4.76,44.53-6.25,62.14,0
			l21.91,53.27l9.48,37.89C906.56,490.51,903.61,538.45,933.69,579.43z"/>
		<path class="st15" d="M779.53,336.67l-5.52,35.56c0,0,19.54,29.35,38.66,27.36c26.51-2.77,17.85-27.36,17.85-27.36l-3.33-31.97
			L779.53,336.67z"/>
		<g>
			<path class="st16" d="M784.77,350.41c-0.01,3.75,0.8,7.8,2.34,12.11c1.11,3.11,2.59,6.35,4.42,9.71
				c9.29,8.13,19.67,14.67,31.97,18.44c4.57,1.02,8.26-0.27,11.37-3.07c7.34-7.91,12.21-21.34,15.99-37.2l3.54-20.29
				c-0.96-30.25-11.18-52.77-43.81-56.56c-20.69,3.94-34.4,15.57-38.73,37.5c-1.8,9.91-0.51,20.32,2.79,31.05L784.77,350.41z"/>
			<path class="st13" d="M774.65,356.05l8.05,5.43l-0.23-12.32l7.84,1.94l4.61-11.07c19.83,13.04,55.31,7.47,60.64-7.74
				c3.93-16.17,0.17-36.74-17.1-49.85c-9.26-7.02-18.4-12.04-32.46-9.96c-20.9,3.08-33.61,17.31-37.35,38.73
				C767.82,321.39,771.1,344.9,774.65,356.05z"/>
			<path class="st16" d="M787.54,351.8c0-3.96-0.07-7.19-2.13-10.61c-1.49-2.47-5.25-6.14-8.07-3.74c-4,3.41-0.97,17.6,3.05,19.93
				C786.44,360.88,787.54,356.05,787.54,351.8z"/>
		</g>
		<g>
			<path class="st16" d="M900.99,524.71c-5.72,3.19-103.96,7.02-103.66,4.16c-0.26-7.59-1.63-15.87-3.76-24.61l-46.54,10.99
				c5.42,13.71,12.2,27.84,19.49,42.12c24.4,29.37,83.48,6.76,136.12-10.14C902.65,547.24,902.54,523.85,900.99,524.71z"/>
			<g>
				<path class="st16" d="M941.59,522.57c0,0-0.98,14.09-7.32,16.85c-6.34,2.79-17.72-10.93-17.72-10.93L941.59,522.57z"/>
				<polygon class="st17" points="987.06,502.98 939.53,525.84 893.25,535.71 935.11,513.17 				"/>
				<polygon class="st18" points="938.65,514.2 973.38,507.39 940.8,523.06 906.66,530.61 				"/>
				<path class="st16" d="M897.08,522.42c3.89-4.02,12.94-5.2,15.12-5.54c4.25-0.64,8.74-3.72,12.71-0.7
					c2.03,1.54,3.58,2.61,5.99,2.87c2.58,0.27,1.83,1.35,0.01,2.59c-1.61,1.1-3.28,2.29-5.24,1.55c-2.57-0.96-6.67-1.6-7.18,2.51
					c-0.51,4.09,2.87,3.64,5.6,5.15c4.33,2.39,7.35,2.57,9.9,6.97c1.5,2.14-1.96,5.69-6.06,4.39c0.32,0.53,1.73,0.62,1.07,2.01
					c-2.1,2.98-5.87,3.19-8.15,1.37c3.18,4.08-4.27,5.68-6.9,2.55c0.21,3.65-7.06,2.13-8.95,1.16c-3.47-1.76-8.74-6.29-11.04-9.32
					c-1.91-2.48-2.74-9.24-0.89-12.22C893.89,526.48,895.82,523.3,897.08,522.42L897.08,522.42z"/>
			</g>
			<path class="st12" d="M781.42,467.25c-17.48-33.86-35.58-51.1-54.54-44.78c-3.93,24.23-2.47,47.29,11.79,67.58
				c2.1,8.19,4.97,16.62,8.37,25.2c12.5,2.02,28.71-2.97,46.54-10.99C790.75,492.68,786.54,480.24,781.42,467.25z"/>
		</g>
	</g>
</g>
<g>
	<g>
		<polygon class="st19" points="920.06,199.79 1040.36,269.24 1040.36,416.09 920.06,346.64 		"/>
		<polygon class="st20" points="969.55,366.71 1031,402.19 1031,335.33 969.55,299.85 		"/>
		<polygon class="st20" points="961.57,232.23 961.57,283.27 928.12,263.95 928.12,212.92 		"/>
		<polygon class="st21" points="961.57,298.91 961.57,360.68 928.12,341.36 928.12,279.6 		"/>
		<polygon class="st22" points="969.55,245.88 1031,281.36 1031,274.58 969.55,239.1 		"/>
		<polygon class="st22" points="969.55,259.88 1031,295.36 1031,288.59 969.55,253.11 		"/>
		<polygon class="st22" points="969.55,274.36 1031,309.84 1031,303.07 969.55,267.59 		"/>
		<polygon class="st22" points="969.55,288.37 1031,323.85 1031,317.07 969.55,281.59 		"/>
	</g>
	<g>
		<path class="st20" d="M958.19,131.96c0,35.41,21.53,76.54,48.08,91.87c26.55,15.33,48.08-0.94,48.08-36.35
			c0-35.41-21.53-76.54-48.08-91.87C979.72,80.28,958.19,96.55,958.19,131.96z"/>
		<path class="st23" d="M981.96,147.96c0,15,9.12,32.43,20.38,38.93c11.25,6.5,20.37-0.4,20.37-15.4c0-15-9.12-32.43-20.37-38.93
			C991.09,126.06,981.96,132.95,981.96,147.96z"/>
	</g>
	<g>
		<polygon class="st24" points="1247.14,205.84 1320.99,248.73 1320.99,336.71 1247.14,294.02 		"/>
		<polygon class="st22" points="1250.27,211.89 1317.24,250.78 1317.24,256.37 1250.27,217.66 		"/>
		<polygon class="st22" points="1267.76,234.9 1267.76,238.2 1250.27,228.09 1250.27,224.74 		"/>
		<polygon class="st22" points="1315.84,326.14 1315.84,329.43 1298.35,319.32 1298.35,315.98 		"/>
		<polygon class="st22" points="1262.72,239.7 1262.72,243.02 1250.27,235.82 1250.27,232.47 		"/>
		<path class="st22" d="M1258.98,265.77c0.45,17.6,11.59,36.19,24.87,41.54c13.28,5.34,23.68-4.59,23.23-22.19
			c-0.46-17.59-11.59-36.19-24.87-41.54C1268.92,238.24,1258.53,248.17,1258.98,265.77z"/>
		<path class="st25" d="M1271.94,271.34c0.19,7.46,4.92,15.35,10.55,17.62c5.63,2.27,10.04-1.95,9.85-9.41
			c-0.19-7.46-4.92-15.35-10.55-17.62C1276.16,259.66,1271.75,263.87,1271.94,271.34z"/>
	</g>
	<g>
		<polygon class="st19" points="1068.92,100.45 1238.11,198.71 1238.11,525.41 1068.92,427.61 		"/>
		<polygon class="st22" points="1081.77,130.29 1216.82,208.72 1216.82,228.29 1081.77,150.22 		"/>
		<polygon class="st26" points="1147.87,207.66 1216.82,247.7 1216.82,255.21 1147.87,215.35 		"/>
		<polygon class="st26" points="1161.13,232.2 1216.82,264.54 1216.82,272.05 1161.13,239.86 		"/>
		<polygon class="st26" points="1161.13,248.9 1216.82,281.24 1216.82,288.74 1161.13,256.55 		"/>
		<polygon class="st26" points="1147.87,289.15 1216.82,329.19 1216.82,336.69 1147.87,296.84 		"/>
		<polygon class="st26" points="1161.13,313.69 1216.82,346.03 1216.82,353.54 1161.13,321.34 		"/>
		<polygon class="st26" points="1161.13,330.38 1216.82,362.73 1216.82,370.23 1161.13,338.04 		"/>
		<polygon class="st26" points="1147.87,370.51 1216.82,410.56 1216.82,418.06 1147.87,378.21 		"/>
		<polygon class="st26" points="1161.13,395.05 1216.82,427.4 1216.82,434.9 1161.13,402.71 		"/>
		<polygon class="st26" points="1161.13,411.75 1216.82,444.09 1216.82,451.59 1161.13,419.4 		"/>
		<polygon class="st20" points="1141.46,203.83 1141.46,267.93 1087.22,236.58 1087.22,172.32 		"/>
		<polygon class="st20" points="1141.46,283.62 1141.46,347.73 1087.22,316.37 1087.22,252.13 		"/>
		<polygon class="st20" points="1141.46,363.91 1141.46,428.01 1087.22,396.66 1087.22,332.4 		"/>
		<polygon class="st27" points="1141.46,443.71 1141.46,456.13 1087.22,424.78 1087.22,412.2 		"/>
	</g>
</g>
<path class="st12" d="M819.28,375.74l16.91-1.79l-3.12,2.2c-3.27,2.3-7.53,2.64-11.12,0.89L819.28,375.74z"/>
</svg>
