<?xml version="1.0" encoding="utf-8"?>
<!-- Generator: Adobe Illustrator 24.2.0, SVG Export Plug-In . SVG Version: 6.00 Build 0)  -->
<svg version="1.1" id="Layer_1" xmlns="http://www.w3.org/2000/svg" xmlns:xlink="http://www.w3.org/1999/xlink" x="0px" y="0px"
	 viewBox="0 0 1920 1080" style="enable-background:new 0 0 1920 1080;" xml:space="preserve">
<style type="text/css">
	.st0{opacity:0.38;}
	.st1{fill:#7BC7FF;}
	.st2{fill:#C6CEE2;}
	.st3{fill:#8794C4;}
	.st4{fill:#F0F0F0;}
	.st5{fill:#0C272D;}
	.st6{fill:#90AE5D;}
	.st7{fill:#538445;}
	.st8{fill:#176249;}
	.st9{enable-background:new    ;}
	.st10{fill:#292929;}
	.st11{fill:#2B2B2B;}
	.st12{fill:#2C2C2C;}
	.st13{fill:#2D2D2D;}
	.st14{fill:#2E2E2E;}
	.st15{fill:#313131;}
	.st16{fill:#323232;}
	.st17{fill:#333333;}
	.st18{clip-path:url(#SVGID_2_);fill:#292929;}
	.st19{fill:#FFFFFF;}
	.st20{fill:#DE801A;}
	.st21{fill:#C3CAD6;}
	.st22{fill:#DEDEDE;}
	.st23{fill:#BE403D;}
	.st24{fill:#D5AE7D;}
	.st25{fill:#1565A2;}
	.st26{fill:#D79B3A;}
	.st27{fill:#9ABBC0;}
	.st28{fill:#DAA539;}
	.st29{fill:#3088D7;}
	.st30{fill:#1C1C1C;}
	.st31{fill:#DE4E4E;}
	.st32{fill:#09436A;}
	.st33{opacity:0.1;}
	.st34{fill:#607080;}
	.st35{fill:#FEC9C9;}
	.st36{opacity:0.15;}
	.st37{fill:#CF3838;}
	.st38{fill:url(#SVGID_5_);}
	.st39{fill:#110812;}
	.st40{fill:url(#SVGID_6_);}
	.st41{fill:url(#SVGID_7_);}
	.st42{fill:#FF61CB;}
	.st43{fill:url(#SVGID_8_);}
	.st44{opacity:0.25;}
	.st45{fill:#BD221E;}
	.st46{fill:#EA49BD;}
	.st47{fill:#002A72;}
	.st48{fill:#000314;}
	.st49{fill:#00225F;}
	.st50{fill:#FFB587;}
	.st51{fill:#001748;}
	.st52{fill:#FAFBFF;}
	.st53{fill:#00205D;}
</style>
<g class="st0">
	<path class="st1" d="M1526.17,676.37c-19.31-53.82-49.7-70.2-78.62-104.72c-35.31-42.16-59.13-72.81-49.97-127.05
		c14.98-88.62,21.4-309.63-213.21-280.74c-84.09,10.36-150.54,74.8-198.88,139.12c-41.13,54.73-115.13,59.56-174.69,72.32
		c-73.18,15.68-147.72,39.36-215.42,74.06c-139.44,71.47-181.08,174.21-175.4,305.66c1.72,39.71,7.34,102.27,74.43,175.47
		c90.55,98.8,222.13,112.03,380.5,66.66c36.25-10.39,70.52-26.68,106.18-38.94c37.05-12.74,75.59-21.11,114.59-24.88
		c90.96-8.79,185.24,7.11,272.5-20.05c46.14-14.36,88.51-40.64,121.88-75.59C1531.72,794.03,1546.55,733.17,1526.17,676.37z"/>
</g>
<g>
	<g>
		<g>
			<path class="st2" d="M794.04,303.05c0.3,0.17,0.59,0.54,0.71,0.95l3.81,12.69c2.23,3.64,4.72,7.86,7.36,12.62l-1.8-10.01
				c-0.09-0.53,0.16-0.86,0.58-0.73c0.53,0.28,0.84,0.74,0.93,1.2l2.41,13.41c2.7,5,5.55,10.51,8.43,16.51l-1.31-8.61
				c-0.08-0.53,0.19-0.84,0.61-0.69c0.52,0.28,0.83,0.75,0.9,1.22l1.91,12.57c2.95,6.35,5.92,13.18,8.82,20.46l-0.53-7.96
				c-0.03-0.5,0.28-0.75,0.71-0.55c0.47,0.27,0.8,0.8,0.83,1.29l0.79,11.83c2.65,6.91,5.21,14.19,7.62,21.81l0.56-4.18
				c0.05-0.42,0.38-0.55,0.76-0.33c0.54,0.39,0.83,1,0.77,1.45l-0.92,6.83c1.78,5.84,3.46,11.87,5.02,18.08l0.71-4.07
				c0.07-0.38,0.39-0.5,0.76-0.29c0.56,0.43,0.84,1.05,0.76,1.48l-1.23,6.99c0.73,3.06,1.42,6.15,2.08,9.29l-2.1,0.09
				c-0.66-3.15-1.34-6.25-2.06-9.3c-1.66-2.05-5.7-6.88-7.87-8.37c-0.42-0.29-0.73-0.9-0.69-1.36c0.04-0.44,0.38-0.59,0.77-0.36
				c1.99,1.36,5.03,4.78,7.1,7.24c-0.59-2.4-1.2-4.78-1.82-7.12c-1.74-1.89-6.08-6.42-9.61-8.71c-0.42-0.27-0.75-0.89-0.72-1.36
				c0.03-0.45,0.37-0.62,0.78-0.38c3.07,1.99,6.61,5.45,8.82,7.75c-1.32-4.82-2.72-9.5-4.17-14.08c-2.39-1.9-9.35-7.34-13.81-9.92
				c-0.64-0.37-1.23-0.68-1.74-0.91c-0.47-0.27-0.81-0.8-0.85-1.28c-0.04-0.51,0.26-0.77,0.69-0.58c0.55,0.25,1.19,0.58,1.87,0.98
				c4.07,2.35,10.04,6.91,13.06,9.29c-1.58-4.86-3.22-9.58-4.9-14.15c-2.28-1.88-8.98-7.26-15.23-10.87
				c-1.13-0.65-2.25-1.25-3.32-1.75c-0.47-0.27-0.8-0.8-0.83-1.28c-0.04-0.52,0.28-0.77,0.7-0.57c1.1,0.52,2.25,1.13,3.41,1.81
				c5.48,3.16,11.27,7.63,14.3,10.07c-0.84-2.24-1.7-4.45-2.56-6.61c-2.43-2.19-10.23-8.92-19.31-14.17
				c-0.97-0.56-1.95-1.1-2.94-1.62c-0.45-0.26-0.79-0.82-0.81-1.3c-0.02-0.51,0.3-0.74,0.73-0.51c1.02,0.53,2.03,1.09,3.03,1.66
				c7.81,4.51,14.68,10.1,18.16,13.1c-3.18-7.8-6.43-15.04-9.62-21.68c-1.15-0.69-3.39-2.04-6.12-3.61
				c-5.53-3.19-13.08-7.35-17.62-9.01c-0.51-0.28-0.83-0.76-0.9-1.23c-0.08-0.53,0.2-0.83,0.62-0.68c4.64,1.7,12.28,5.9,17.87,9.13
				c1.97,1.14,3.68,2.15,4.93,2.9c-2.42-4.94-4.79-9.52-7.07-13.72c-3.33-1.63-15.63-7.67-18.6-8.92c-0.48-0.27-0.81-0.78-0.87-1.26
				c-0.06-0.52,0.24-0.79,0.66-0.61c2.73,1.15,13.03,6.19,17.47,8.36c-3.01-5.46-5.82-10.23-8.3-14.26
				c-3.13-1.31-10.66-4.44-12.52-5.07c-0.52-0.28-0.83-0.75-0.91-1.21c-0.09-0.54,0.18-0.85,0.6-0.7c1.65,0.55,7.74,3.07,11.32,4.56
				c-5.18-8.23-8.55-12.71-8.59-12.76c-0.54-0.71-0.68-1.62-0.32-2.03c0.22-0.26,0.59-0.26,0.96-0.04c0.22,0.13,0.44,0.33,0.64,0.59
				c0.04,0.05,3.19,4.22,8.08,11.93l-2.56-8.53c-0.16-0.55,0.02-0.96,0.41-0.92C793.83,302.96,793.94,302.99,794.04,303.05z"/>
		</g>
		<g>
			<path class="st3" d="M787.24,290.41c15.45,8.92,44.57,62.97,64.34,145.69l-5.49,0.22c-0.66-3.14-1.35-6.24-2.08-9.29l1.23-6.99
				c0.08-0.43-0.2-1.06-0.62-1.39c-0.51-0.31-0.83-0.19-0.9,0.2l-0.71,4.07c-1.56-6.21-3.24-12.24-5.02-18.08l0.92-6.83
				c0.06-0.45-0.23-1.07-0.65-1.38c-0.5-0.3-0.82-0.17-0.88,0.25l-0.56,4.18c-2.41-7.62-4.97-14.9-7.62-21.81l-0.79-11.83
				c-0.03-0.49-0.37-1.02-0.76-1.25c-0.49-0.24-0.81,0.01-0.78,0.51l0.53,7.96c-2.9-7.28-5.87-14.11-8.82-20.46l-1.91-12.57
				c-0.07-0.47-0.39-0.94-0.75-1.15c-0.57-0.22-0.84,0.09-0.76,0.62l1.31,8.61c-2.88-6-5.72-11.51-8.43-16.51l-2.41-13.41
				c-0.09-0.46-0.4-0.92-0.75-1.12c-0.6-0.21-0.86,0.12-0.76,0.65l1.8,10.01c-2.65-4.76-5.13-8.98-7.36-12.62L794.74,304
				c-0.12-0.41-0.4-0.77-0.71-0.95c-0.1-0.06-0.2-0.09-0.3-0.1c-0.39-0.03-0.58,0.37-0.41,0.92l2.56,8.53
				c-4.9-7.71-8.04-11.88-8.08-11.93c-0.2-0.26-0.42-0.47-0.64-0.59c-0.37-0.22-0.74-0.22-0.96,0.04c-0.36,0.41-0.21,1.32,0.32,2.03
				c0.04,0.05,3.41,4.53,8.59,12.76c-3.58-1.48-9.67-4.01-11.32-4.56c-0.42-0.15-0.69,0.17-0.6,0.7c0.08,0.46,0.4,0.93,0.75,1.14
				c2.02,0.7,9.55,3.83,12.68,5.14c2.48,4.02,5.29,8.79,8.3,14.26c-4.44-2.17-14.75-7.21-17.47-8.36c-0.42-0.18-0.72,0.09-0.66,0.61
				c0.05,0.48,0.38,0.99,0.76,1.21c3.08,1.3,15.38,7.34,18.7,8.97c2.28,4.2,4.66,8.79,7.07,13.72c-1.24-0.74-2.96-1.76-4.93-2.9
				c-5.59-3.23-13.23-7.43-17.87-9.13c-0.42-0.16-0.7,0.15-0.62,0.68c0.07,0.47,0.39,0.95,0.76,1.16
				c4.68,1.73,12.23,5.88,17.76,9.08c2.73,1.58,4.97,2.92,6.12,3.61c3.19,6.63,6.44,13.88,9.62,21.68c-3.47-3-10.35-8.59-18.16-13.1
				c-0.99-0.57-2.01-1.13-3.03-1.66c-0.43-0.22-0.75,0.01-0.73,0.51c0.02,0.48,0.35,1.04,0.76,1.28c1.04,0.54,2.02,1.08,2.99,1.64
				c9.08,5.24,16.88,11.98,19.31,14.17c0.86,2.16,1.72,4.37,2.56,6.61c-3.03-2.44-8.82-6.91-14.3-10.07
				c-1.16-0.67-2.31-1.28-3.41-1.81c-0.42-0.2-0.74,0.05-0.7,0.57c0.03,0.48,0.37,1.02,0.76,1.25c1.14,0.54,2.26,1.14,3.39,1.79
				c6.25,3.61,12.95,8.99,15.23,10.87c1.68,4.56,3.32,9.28,4.9,14.15c-3.03-2.38-8.99-6.94-13.06-9.29
				c-0.68-0.4-1.32-0.73-1.87-0.98c-0.42-0.19-0.73,0.07-0.69,0.58c0.05,0.48,0.38,1.01,0.77,1.24c0.6,0.27,1.18,0.58,1.82,0.95
				c4.46,2.57,11.42,8.02,13.81,9.92c1.45,4.57,2.85,9.26,4.17,14.08c-2.21-2.3-5.75-5.76-8.77-7.72c-0.45-0.26-0.79-0.1-0.83,0.35
				c-0.03,0.48,0.3,1.09,0.72,1.36c3.52,2.28,7.87,6.82,9.61,8.71c0.63,2.35,1.23,4.72,1.82,7.12c-2.07-2.45-5.12-5.88-7.03-7.19
				c-0.46-0.27-0.8-0.13-0.84,0.32c-0.04,0.46,0.27,1.08,0.69,1.36c2.16,1.49,6.2,6.32,7.87,8.37c0.72,3.05,1.41,6.15,2.06,9.3
				l-6.12,0.24c-3.7-11.36-11.25-30.1-26.32-54.06c-25.59-40.66-43.19-83.14-31.14-92.55C782.16,288.66,784.49,288.82,787.24,290.41
				z"/>
		</g>
	</g>
</g>
<g>
	<g>
		<g>
			<path class="st2" d="M714.58,314.12c35.3,20.38,109.29,120.22,178.28,278.41c-3.62,0.6-7.06,1.03-10.34,1.28
				c-1.02-3.4-2.52-6.73-4.02-10.01l2.46-5.71c0.15-0.37-0.04-0.99-0.44-1.41c-0.58-0.4-0.88-0.36-1-0.08l-2.09,4.86
				c-1.84-4.01-3.68-7.97-5.52-11.88l0.72-8.74c0.04-0.46-0.27-1.08-0.7-1.37c-0.46-0.27-0.8-0.12-0.84,0.32l-0.56,6.85
				c-2.46-5.2-4.91-10.28-7.34-15.27l0.4-12.92c0.01-0.48-0.32-1.09-0.74-1.35c-0.44-0.25-0.78-0.07-0.8,0.4l-0.34,10.86
				c-2.65-5.39-5.28-10.66-7.9-15.81l-1.3-16.15c-0.04-0.48-0.37-1.01-0.77-1.24c-0.5-0.23-0.81,0.02-0.77,0.54l1.08,13.43
				c-3.62-7.06-7.22-13.9-10.78-20.53l-3.23-18.93c-0.08-0.46-0.4-0.93-0.76-1.13c-0.58-0.21-0.84,0.11-0.75,0.64l2.65,15.57
				c-4.08-7.52-8.12-14.77-12.1-21.73l-4.3-21.17c-0.09-0.45-0.4-0.89-0.74-1.09c-0.61-0.2-0.85,0.15-0.75,0.69l3.61,17.81
				c-4.54-7.86-9.02-15.37-13.41-22.53l-4.4-19.42c-0.1-0.44-0.41-0.87-0.74-1.06c-0.62-0.18-0.86,0.18-0.74,0.72l3.66,16.17
				c-2.36-3.8-4.7-7.52-7.01-11.13l-6.98-25.3c-0.12-0.42-0.41-0.81-0.72-0.99c-0.68-0.16-0.88,0.24-0.73,0.79l6,21.75
				c-5.82-8.99-11.47-17.34-16.91-25.1l-8.7-26.52c-0.13-0.4-0.41-0.75-0.71-0.92c-0.71-0.11-0.88,0.32-0.7,0.87l7.52,22.91
				c-2.94-4.13-5.8-8.06-8.61-11.84l-9.93-29.04c-0.14-0.39-0.41-0.73-0.69-0.9c-0.72-0.1-0.88,0.33-0.69,0.88l8.77,25.64
				c-6.14-8.17-11.94-15.47-17.35-22l-11.04-28.57c-0.14-0.37-0.4-0.67-0.66-0.83c-0.75-0.07-0.88,0.4-0.67,0.95l9.8,25.37
				c-3.61-4.3-7.04-8.24-10.26-11.83l-10.19-24.72c-0.15-0.35-0.4-0.64-0.66-0.79c-0.77-0.05-0.88,0.44-0.66,0.97l8.96,21.73
				c-4.69-5.14-8.91-9.5-12.61-13.16c-2.14-3.87-8.41-15.09-9.88-16.76c-0.62-0.45-0.9-0.42-1.03-0.18
				c-0.19,0.33-0.03,0.95,0.35,1.38c0.95,1.08,4.72,7.69,7.38,12.45c-9.09-8.76-14.23-12.55-14.29-12.6
				c-0.74-0.44-1.24-0.26-1.32,0.34c-0.1,0.67,0.33,1.6,0.96,2.08c0.1,0.08,11.79,8.71,31.17,30.16
				c-4.69-1.46-14.71-4.07-26.82-4.18c-0.38,0-0.54,0.44-0.35,0.99c0.14,0.39,0.41,0.73,0.7,0.9c14.52,0.23,25.74,3.81,28.77,4.87
				c2.41,2.71,4.92,5.6,7.54,8.69c-5.49-0.96-20.4-3.09-31.58-0.42c-0.35,0.09-0.43,0.59-0.18,1.13c0.15,0.33,0.39,0.6,0.63,0.74
				c12.61-2.83,29.3,0.06,33,0.76c6.34,7.56,13.25,16.25,20.64,26.16c-5.07-0.28-20.94-0.77-35.23,2.64
				c-0.35,0.09-0.42,0.6-0.18,1.14c0.15,0.33,0.39,0.6,0.63,0.73c15.6-3.55,32.59-2.72,36.3-2.48c3.15,4.26,6.4,8.75,9.72,13.47
				c-5.82-0.41-26.21-1.51-36.98,1.86c-0.34,0.1-0.4,0.62-0.14,1.16c0.15,0.31,0.37,0.56,0.61,0.69c11.69-3.42,33.62-2,37.95-1.67
				c5.7,8.14,11.62,16.96,17.73,26.47c-4.78-1-18.88-3.39-36.64-1.31c-0.36,0.04-0.48,0.52-0.27,1.07c0.15,0.36,0.4,0.66,0.66,0.81
				c19.44-2.13,34.17,0.8,37.64,1.59c2.57,4.03,5.18,8.19,7.82,12.47c-4.75-0.9-18.97-3.22-32.09-1.38
				c-0.36,0.06-0.47,0.54-0.25,1.09c0.14,0.35,0.4,0.64,0.65,0.79c14.27-1.84,29.37,0.9,32.99,1.63c4.45,7.27,8.99,14.9,13.59,22.91
				c-6.51-2.55-25.15-9.22-33.79-5.7c-0.33,0.13-0.37,0.67-0.09,1.2c0.15,0.3,0.37,0.53,0.59,0.66c9.42-3.55,29.62,4.15,34.65,6.19
				c4.34,7.58,8.74,15.48,13.2,23.73c-5.24-2.64-19.19-9.24-29.63-10.14c-0.39-0.03-0.58,0.38-0.41,0.93
				c0.12,0.41,0.41,0.77,0.71,0.94c11.51,1.08,26.91,8.77,30.63,10.71c3.62,6.74,7.28,13.7,10.96,20.91
				c-4.43-1.96-15.14-6.53-26.79-10.17c-0.42-0.12-0.68,0.2-0.58,0.74c0.08,0.46,0.4,0.91,0.75,1.12
				c12.76,4.01,24.26,9.04,27.8,10.63c2.79,5.49,5.61,11.12,8.43,16.88c-3.3-1.45-10.64-4.55-18.58-7.02
				c-0.42-0.13-0.68,0.2-0.58,0.73c0.09,0.46,0.41,0.93,0.76,1.13c8.93,2.8,16.93,6.29,19.51,7.45c2.8,5.73,5.6,11.57,8.42,17.57
				c-3.4-1.67-10.72-5.26-13.67-6.45c-0.42-0.17-0.72,0.11-0.65,0.63c0.06,0.47,0.39,0.98,0.76,1.2c3.33,1.36,11.97,5.62,14.64,6.95
				c1.5,3.2,3.01,6.45,4.52,9.74c-2.24-1.07-6.34-2.74-11.31-3.33c-0.4-0.05-0.59,0.36-0.43,0.9c0.12,0.42,0.41,0.79,0.71,0.97
				c5.96,0.78,10.4,2.87,12.08,3.75c1.44,3.15,2.88,6.33,4.32,9.54c-5.47,0.35-10.46,0.23-15.03-0.29
				c-10.8-21.14-32.89-58.25-73.22-103.81c-63.8-72.07-113.99-151.43-96.4-176.16C699.7,308.91,706,309.16,714.58,314.12z"/>
		</g>
		<g>
			<path class="st4" d="M727.74,331.72c0.67,0.25,0.92,0.54,1.07,0.89L739,357.33c3.22,3.59,6.65,7.53,10.26,11.83l-9.8-25.37
				c-0.21-0.55-0.08-1.02,0.28-1.05c0.65,0.26,0.91,0.56,1.05,0.93l11.04,28.57c5.41,6.53,11.21,13.84,17.35,22l-8.77-25.64
				c-0.19-0.55-0.03-0.99,0.35-0.99c0.62,0.27,0.9,0.61,1.03,1l9.93,29.04c2.81,3.78,5.68,7.72,8.61,11.84l-7.52-22.91
				c-0.18-0.55-0.02-0.99,0.37-0.98c0.62,0.28,0.9,0.62,1.03,1.02l8.7,26.52c5.45,7.76,11.09,16.11,16.91,25.1l-6-21.75
				c-0.15-0.54,0.05-0.94,0.45-0.89c0.59,0.28,0.88,0.66,0.99,1.09l6.98,25.3c2.31,3.61,4.65,7.33,7.01,11.13l-3.66-16.17
				c-0.12-0.54,0.11-0.9,0.51-0.81c0.56,0.28,0.86,0.71,0.96,1.15l4.4,19.42c4.39,7.16,8.87,14.66,13.41,22.53l-3.61-17.81
				c-0.11-0.54,0.14-0.88,0.55-0.77c0.54,0.28,0.85,0.72,0.94,1.18l4.3,21.17c3.98,6.96,8.02,14.21,12.1,21.73l-2.65-15.57
				c-0.09-0.53,0.18-0.85,0.59-0.72c0.52,0.28,0.84,0.75,0.92,1.21l3.23,18.93c3.56,6.63,7.16,13.47,10.78,20.53l-1.08-13.43
				c-0.04-0.51,0.27-0.77,0.69-0.58c0.47,0.27,0.81,0.81,0.85,1.28l1.3,16.15c2.62,5.15,5.26,10.42,7.9,15.81l0.34-10.86
				c0.02-0.47,0.36-0.65,0.78-0.41c0.45,0.28,0.78,0.88,0.77,1.36l-0.4,12.92c2.44,4.99,4.88,10.07,7.34,15.27l0.56-6.85
				c0.04-0.44,0.38-0.59,0.77-0.37c0.5,0.33,0.81,0.95,0.77,1.41l-0.72,8.74c1.84,3.9,3.67,7.87,5.52,11.88l2.09-4.86
				c0.12-0.28,0.41-0.32,0.72-0.15c0.67,0.63,0.87,1.26,0.72,1.63l-2.46,5.71c1.5,3.28,3.01,6.61,4.51,9.97
				c-0.16,0.01-0.33,0.03-0.49,0.04c-0.52,0.04-1.03,0.08-1.54,0.11c-1.44-3.21-2.88-6.39-4.32-9.54
				c-1.68-0.88-6.12-2.97-11.79-3.65c-0.59-0.28-0.88-0.65-1-1.07c-0.16-0.55,0.03-0.95,0.43-0.9c4.97,0.59,9.07,2.26,11.31,3.33
				c-1.51-3.29-3.02-6.54-4.52-9.74c-2.68-1.32-11.31-5.58-14.53-6.89c-0.49-0.27-0.82-0.78-0.88-1.26
				c-0.06-0.52,0.23-0.8,0.65-0.63c2.96,1.19,10.28,4.78,13.67,6.45c-2.82-5.99-5.63-11.84-8.42-17.57
				c-2.58-1.16-10.58-4.65-19.34-7.38c-0.52-0.28-0.84-0.74-0.93-1.21c-0.09-0.53,0.17-0.86,0.58-0.73
				c7.94,2.48,15.28,5.57,18.58,7.02c-2.82-5.76-5.64-11.38-8.43-16.88c-3.54-1.59-15.04-6.62-27.63-10.55
				c-0.53-0.28-0.84-0.74-0.92-1.19c-0.1-0.54,0.16-0.86,0.58-0.74c11.65,3.64,22.35,8.2,26.79,10.17
				c-3.68-7.2-7.34-14.17-10.96-20.91c-3.72-1.94-19.13-9.63-30.33-10.6c-0.61-0.28-0.89-0.64-1.01-1.05
				c-0.17-0.55,0.02-0.97,0.41-0.93c10.44,0.91,24.4,7.5,29.63,10.14c-4.46-8.26-8.86-16.16-13.2-23.73
				c-5.03-2.04-25.23-9.74-34.15-6.11c-0.15,0.06-0.33,0.02-0.5-0.08c-0.22-0.13-0.43-0.36-0.59-0.66c-0.27-0.53-0.23-1.07,0.09-1.2
				c8.64-3.53,27.29,3.15,33.79,5.7c-4.61-8-9.15-15.63-13.59-22.91c-3.61-0.73-18.72-3.47-32.58-1.53
				c-0.66-0.25-0.92-0.54-1.06-0.89c-0.22-0.55-0.11-1.03,0.25-1.09c13.13-1.84,27.34,0.47,32.09,1.38
				c-2.64-4.28-5.25-8.44-7.82-12.47c-3.47-0.79-18.2-3.73-37.24-1.49c-0.66-0.25-0.91-0.55-1.06-0.91
				c-0.22-0.54-0.1-1.03,0.27-1.07c17.77-2.08,31.86,0.31,36.64,1.31c-6.11-9.51-12.03-18.33-17.73-26.47
				c-4.33-0.33-26.27-1.75-37.48,1.77c-0.7-0.22-0.93-0.47-1.08-0.78c-0.26-0.54-0.2-1.06,0.14-1.16
				c10.77-3.37,31.16-2.27,36.98-1.86c-3.32-4.72-6.57-9.21-9.72-13.47c-3.71-0.24-20.7-1.07-35.85,2.57
				c-0.69-0.23-0.93-0.5-1.08-0.83c-0.24-0.54-0.16-1.05,0.18-1.14c14.29-3.42,30.16-2.93,35.23-2.64
				c-7.39-9.9-14.3-18.59-20.64-26.16c-3.7-0.7-20.4-3.59-32.56-0.67c-0.69-0.24-0.93-0.5-1.08-0.84c-0.25-0.54-0.16-1.04,0.18-1.13
				c11.18-2.68,26.09-0.54,31.58,0.42c-2.62-3.09-5.13-5.98-7.54-8.69c-3.03-1.06-14.25-4.64-28.43-4.76c-0.62-0.27-0.9-0.61-1.03-1
				c-0.19-0.55-0.03-0.99,0.35-0.99c12.11,0.11,22.13,2.72,26.82,4.18c-19.38-21.45-31.07-30.08-31.17-30.16
				c-0.63-0.47-1.06-1.4-0.96-2.08c0.09-0.6,0.59-0.79,1.15-0.46c0.24,0.17,5.38,3.96,14.46,12.72c-2.67-4.76-6.43-11.36-7.38-12.45
				c-0.38-0.43-0.54-1.05-0.35-1.38c0.13-0.24,0.41-0.26,0.7-0.1c1.8,1.96,8.07,13.17,10.21,17.04c3.7,3.66,7.91,8.02,12.61,13.16
				l-8.96-21.73C727.27,332.26,727.38,331.77,727.74,331.72z"/>
		</g>
	</g>
</g>
<g>
	<g>
		<g>
			<path class="st2" d="M873.62,699.07c13.96,3.04,26.1,4.63,29.91,5.1c1.84,5.05,3.64,10.16,5.41,15.29L873.62,699.07z"/>
		</g>
		<g>
			<path class="st4" d="M739.07,385.06c0.9,0.51,1.55,1.56,1.62,2.5c0.01,0.04,1.02,13.42-0.47,24.79
				c10.73,13.37,22.8,29.12,35.61,47.06c4.42-18.48,3.97-41.23,3.97-41.3c-0.02-0.96,0.64-1.37,1.47-0.92
				c0.85,0.49,1.51,1.62,1.53,2.56c0.01,0.08,0.49,24.24-4.34,43.33c11.86,16.74,24.31,35.32,36.88,55.56
				c6.23-13.45,12.3-51.5,12.31-51.61c0.12-0.78,0.76-1.01,1.48-0.59c1.05,0.79,1.61,1.99,1.47,2.85
				c-0.02,0.12-6.39,40.12-12.92,53.14c9.95,16.18,19.96,33.39,29.79,51.57c14.85-28.06,15.21-56.29,15.21-56.38
				c0.02-0.93,0.69-1.29,1.51-0.82c0.85,0.51,1.5,1.68,1.49,2.62c0,0.09-0.38,29.7-16.05,58.61c7.51,14.03,14.9,28.62,22.08,43.74
				c2.95-8.53,12.05-36.58,12.92-60.12c0.03-0.91,0.7-1.26,1.5-0.79c0.89,0.55,1.53,1.73,1.5,2.67
				c-0.96,26.21-11.91,57.74-13.74,62.87c6.01,12.85,11.87,26.08,17.5,39.66c2.23-7.91,7.81-29.79,9.51-55.97
				c0.06-0.87,0.72-1.19,1.49-0.74c0.93,0.61,1.55,1.79,1.49,2.71c-1.96,30.33-9.08,54.96-10.36,59.18
				c3.57,8.76,7.04,17.65,10.4,26.69c3.84-12.27,6.3-35.75,6.3-35.82c0.09-0.83,0.74-1.11,1.49-0.68c0.99,0.69,1.58,1.88,1.48,2.77
				c-0.01,0.08-2.87,27.47-7.33,39.02c2.19,6,4.33,12.06,6.41,18.18l-3.35-1.93c-1.76-5.13-3.57-10.24-5.41-15.29
				c-3.81-0.47-15.94-2.06-29.91-5.1l-10.51-6.07c17.18,4.41,33.93,6.67,39,7.3c-3.47-9.42-7.07-18.7-10.77-27.81
				c-20.13-0.07-88.11-19.03-88.31-19.08c-1.04-0.55-1.65-1.41-1.83-2.3c-0.2-1.04,0.28-1.7,1.08-1.48
				c0.2,0.06,67.45,18.81,87.48,19.01c-5.81-14.11-11.86-27.84-18.1-41.17c-14.18-2.57-102.21-21.9-102.48-21.97
				c-1.08-0.55-1.67-1.36-1.87-2.21c-0.25-1.05,0.2-1.75,0.99-1.58c0.26,0.06,84.95,18.66,101.48,21.77
				c-7.27-15.38-14.78-30.21-22.4-44.46l-102.77-21.61c-1.09-0.55-1.68-1.36-1.89-2.21c-0.25-1.05,0.19-1.77,0.98-1.6l101.48,21.34
				c-9.8-18.12-19.78-35.29-29.7-51.41c-8.07-1.83-79.42-18.03-90.4-17.9c-0.22,0-0.45-0.07-0.68-0.2c-0.54-0.31-1.06-0.95-1.33-1.7
				c-0.37-1.06-0.08-1.93,0.66-1.94c10.65-0.13,75.61,14.47,89.16,17.55c-12.41-19.97-24.71-38.29-36.42-54.81l-68.27-18.77
				c-1.05-0.55-1.65-1.41-1.83-2.28c-0.21-1.05,0.27-1.71,1.07-1.49l65.87,18.11c-12.59-17.58-24.44-33.02-34.97-46.12
				c-3.78-1.43-29.14-10.98-38.88-12.96c-1.1-0.54-1.68-1.35-1.88-2.19c-0.26-1.05,0.18-1.78,0.96-1.62
				c8.29,1.68,27.36,8.62,35.72,11.73c-24.34-29.9-40.65-46.29-40.79-46.43c-0.78-0.79-1.16-2-0.86-2.72c0.23-0.56,0.8-0.65,1.4-0.3
				c0.68,0.56,17.88,17.85,43.38,49.35c1.21-10.68,0.3-22.67,0.29-22.71C737.63,385.15,738.24,384.67,739.07,385.06z"/>
		</g>
		<g>
			<path class="st2" d="M922.43,684.62c1,14,1.26,28.36,0.73,43.06l-10.88-6.28c-2.09-6.12-4.22-12.18-6.41-18.18
				c4.46-11.55,7.32-38.94,7.33-39.02c0.1-0.88-0.49-2.08-1.32-2.66c-0.92-0.54-1.57-0.26-1.66,0.57
				c-0.01,0.07-2.46,23.55-6.3,35.82c-3.36-9.04-6.83-17.93-10.4-26.69c1.28-4.22,8.4-28.84,10.36-59.18
				c0.07-0.92-0.56-2.1-1.38-2.64c-0.88-0.52-1.54-0.2-1.6,0.67c-1.7,26.18-7.28,48.06-9.51,55.97
				c-5.63-13.58-11.49-26.81-17.5-39.66c1.83-5.13,12.77-36.66,13.74-62.87c0.03-0.93-0.61-2.11-1.44-2.63
				c-0.86-0.5-1.53-0.15-1.56,0.76c-0.87,23.54-9.97,51.59-12.92,60.12c-7.18-15.12-14.57-29.72-22.08-43.74
				c15.67-28.91,16.04-58.52,16.05-58.61c0.02-0.95-0.64-2.11-1.46-2.61c-0.84-0.49-1.52-0.12-1.54,0.8
				c0,0.09-0.36,28.32-15.21,56.38c-9.83-18.17-19.84-35.39-29.79-51.57c6.53-13.03,12.9-53.02,12.92-53.14
				c0.14-0.86-0.42-2.06-1.23-2.69c-0.97-0.58-1.6-0.35-1.73,0.43c-0.01,0.11-6.08,38.15-12.31,51.61
				c-12.57-20.24-25.02-38.82-36.88-55.56c4.83-19.09,4.35-43.26,4.34-43.33c-0.02-0.94-0.68-2.07-1.49-2.54
				c-0.86-0.47-1.52-0.06-1.5,0.9c0,0.07,0.45,22.82-3.97,41.3c-12.81-17.93-24.88-33.69-35.61-47.06
				c1.49-11.37,0.47-24.75,0.47-24.79c-0.07-0.93-0.72-1.98-1.48-2.42c-0.96-0.46-1.57,0.02-1.5,1.02
				c0.01,0.04,0.91,12.03-0.29,22.71c-25.5-31.5-42.7-48.79-42.85-48.93c-1.13-0.77-1.7-0.67-1.93-0.12
				c-0.3,0.72,0.08,1.93,0.86,2.72c0.14,0.15,16.45,16.53,40.79,46.43c-8.36-3.12-27.43-10.05-35.72-11.73
				c-0.79-0.16-1.22,0.57-0.96,1.62c0.2,0.84,0.78,1.64,1.41,2.01c10.2,2.16,35.56,11.71,39.35,13.14
				c10.53,13.1,22.38,28.55,34.97,46.12l-65.87-18.11c-0.8-0.22-1.28,0.44-1.07,1.49c0.18,0.87,0.78,1.74,1.45,2.12l68.65,18.93
				c11.71,16.52,24,34.84,36.42,54.81c-13.55-3.08-78.51-17.68-89.16-17.55c-0.74,0.01-1.03,0.87-0.66,1.94
				c0.26,0.74,0.78,1.39,1.33,1.7c11.66,0.08,83.02,16.27,91.08,18.1c9.92,16.12,19.9,33.28,29.7,51.41l-101.48-21.34
				c-0.79-0.17-1.23,0.55-0.98,1.6c0.2,0.86,0.79,1.66,1.43,2.03l103.23,21.79c7.62,14.25,15.12,29.08,22.4,44.46
				c-16.53-3.11-101.22-21.71-101.48-21.77c-0.79-0.17-1.24,0.54-0.99,1.58c0.19,0.85,0.78,1.66,1.42,2.03
				c0.71,0.24,88.74,19.57,102.93,22.15c6.24,13.33,12.29,27.06,18.1,41.17c-20.02-0.2-87.28-18.95-87.48-19.01
				c-0.81-0.23-1.29,0.43-1.09,1.48c0.18,0.88,0.78,1.75,1.45,2.14c0.57,0.22,68.55,19.18,88.68,19.25
				c3.7,9.11,7.3,18.39,10.77,27.81c-5.08-0.63-21.82-2.89-39-7.3l-65.97-38.09C700.3,536,684.73,351.05,684.38,346.88
				c-0.09-1.23,0.57-1.75,1.46-1.33c8.99,4.27,18.07,9.04,27.16,14.28c7.15,4.13,14.31,8.56,21.44,13.28
				c45.7,30.24,90.12,72.39,124.4,124.84C893.17,550.46,917.31,613.23,922.43,684.62z"/>
		</g>
	</g>
</g>
<g>
	<g>
		<g>
			<path class="st5" d="M720.72,620.07c11.15-6.44,35.12-5.33,63.04,1.21c23.68,5.55,50.18,15.01,74.1,27.09
				c1.17,0.59,2.33,1.19,3.49,1.79l-47.44,43.79l-13.02,7.52c-24.14-5.09-56.14-18.64-80.08-53.65
				C711.24,633.82,712.43,624.86,720.72,620.07z"/>
		</g>
		<g>
			<path class="st5" d="M734.83,516.62c0.37-0.21,0.73-0.26,1.03-0.1c0.32,0.18,87.89,47.19,126.15,131.8l-0.66,1.85
				c-1.16-0.6-2.32-1.2-3.49-1.79c-38.61-81.99-123.73-127.71-124.05-127.88c-0.62-0.34-0.67-1.51-0.11-2.6
				C734,517.3,734.42,516.86,734.83,516.62z"/>
		</g>
		<g>
			<path class="st6" d="M766.55,148.88c16.93-9.78,37.33-2.05,51.37,32.34c8.55,20.94,21.6,74.35,36.96,128.49
				c-2.09,9.55-4.97,19.18-8.55,28.72c-2.9,7.75-6.26,15.44-10.03,22.97c0.45-0.91,0.9-1.82,1.34-2.74
				c-47.42-71.64-69.77-178.76-69.86-179.21c-0.19-0.86-0.89-1.12-1.67-0.67c-1.29,1.06-1.86,2.52-1.64,3.53
				c0.1,0.45,22.7,108.83,70.87,180.99c-5.3,10.37-11.35,20.43-18.03,29.94c-0.52,0.74-1.05,1.48-1.58,2.22
				c-0.6-0.69-1.2-1.39-1.8-2.1c-18.94-22.22-36.53-47.86-50.22-74.38c-10.46-20.26-18.63-41.03-23.37-61.18
				C727.96,205.09,744.23,161.77,766.55,148.88z"/>
		</g>
		<g>
			<path class="st5" d="M746.17,322.71c4.08-2.35,10.12-3.55,17.55-3.73c13.69,26.52,31.29,52.16,50.22,74.38
				c-20.8-4.81-47.53-16.88-67.7-46.39C737.88,334.73,738.93,326.89,746.17,322.71z"/>
		</g>
		<g>
			<path class="st7" d="M765.74,179.05c1.15-0.72,1.86-0.47,2.05,0.4c0.09,0.45,22.44,107.57,69.86,179.21
				c-0.44,0.92-0.89,1.83-1.34,2.74c-0.32,0.64-0.64,1.27-0.96,1.9c-48.17-72.16-70.77-180.54-70.87-180.99
				C764.26,181.29,764.83,179.84,765.74,179.05z"/>
		</g>
		<g>
			<path class="st5" d="M846.34,338.43c7.82,3.24,15.53,6.82,22.93,10.68l-41.65,38.18l-10.3,5.94c6.68-9.5,12.73-19.56,18.03-29.93
				c0.32-0.63,0.64-1.27,0.96-1.9C840.07,353.86,843.43,346.17,846.34,338.43z"/>
		</g>
		<g>
			<path class="st8" d="M736.91,488.9c13.15-7.59,30.2-8.36,48.49,2.48c32.63,19.34,66.33,68.75,89.57,120.65l-13.62,38.14
				l0.66-1.85c-38.26-84.6-125.83-131.62-126.15-131.8c-0.29-0.16-0.66-0.11-1.03,0.1c-0.41,0.24-0.83,0.68-1.13,1.27
				c-0.56,1.09-0.51,2.26,0.11,2.6c0.31,0.17,85.44,45.89,124.05,127.88c-23.91-12.08-50.42-21.54-74.1-27.09
				c-23.05-15.43-43.07-28.57-52.32-37.48C698.59,552.11,708.92,505.06,736.91,488.9z"/>
		</g>
	</g>
</g>
<g>
	<g>
		<g>
			<g class="st9">
				<g class="st9">
					<g class="st9">
						<path class="st10" d="M1059.64,616.93c0.01-0.38,0.02-0.76,0.02-1.14"/>
						<path class="st10" d="M1059.66,615.79"/>
						<path class="st11" d="M1059.59,618.15c0.03-0.41,0.04-0.82,0.06-1.22"/>
						<path class="st11" d="M1059.64,616.93"/>
						<path class="st12" d="M1059.49,619.38c0.04-0.41,0.07-0.82,0.1-1.23"/>
						<path class="st12" d="M1059.59,618.15"/>
						<path class="st13" d="M1059.35,620.62c0.05-0.41,0.1-0.83,0.14-1.24"/>
						<path class="st13" d="M1059.49,619.38"/>
						<path class="st14" d="M1059.17,621.89c0.07-0.42,0.13-0.85,0.18-1.27"/>
						<path class="st14" d="M1059.35,620.62"/>
						<path class="st15" d="M1058.95,623.17c0.08-0.43,0.15-0.85,0.22-1.28"/>
						<path class="st15" d="M1059.17,621.89"/>
						<path class="st16" d="M1058.68,624.49c0.1-0.44,0.19-0.88,0.27-1.32"/>
						<path class="st16" d="M1058.95,623.17"/>
						<path class="st17" d="M1058.68,624.49"/>
					</g>
				</g>
				<g class="st9">
					<defs>
						<path id="SVGID_1_" class="st9" d="M828.31,762.76l10.13,5.89c-5.57-3.24-9.02-10.12-9.05-19.9l-10.13-5.89
							C819.28,752.64,822.74,759.52,828.31,762.76z"/>
					</defs>
					<clipPath id="SVGID_2_">
						<use xlink:href="#SVGID_1_"  style="overflow:visible;"/>
					</clipPath>
					<path class="st18" d="M829.38,748.74l-10.13-5.89c0,0.03,0,0.06,0,0.09l10.13,5.89C829.38,748.8,829.38,748.77,829.38,748.74"
						/>
				</g>
				<path class="st14" d="M1023.65,95.37c0.43-0.23,0.85-0.45,1.27-0.66c0.42-0.21,0.84-0.41,1.26-0.59
					c0.42-0.19,0.83-0.36,1.24-0.53c0.42-0.17,0.84-0.33,1.25-0.47c0.42-0.15,0.83-0.28,1.24-0.41c0.43-0.13,0.86-0.25,1.28-0.35
					c0.43-0.11,0.85-0.2,1.27-0.28c0.46-0.09,0.91-0.16,1.36-0.22c0.47-0.06,0.93-0.11,1.38-0.14c0.49-0.03,0.98-0.05,1.46-0.05
					c0.55,0,1.08,0.03,1.61,0.08c0.61,0.06,1.21,0.14,1.79,0.26c0.75,0.15,1.47,0.35,2.17,0.6c0.88,0.31,1.72,0.7,2.51,1.16
					l10.13,5.89c-0.8-0.46-1.63-0.85-2.51-1.16c-0.7-0.25-1.42-0.45-2.17-0.6c-0.58-0.12-1.18-0.2-1.79-0.26
					c-0.53-0.05-1.06-0.07-1.61-0.08c-0.48,0-0.97,0.01-1.46,0.05c-0.45,0.03-0.91,0.08-1.38,0.14c-0.45,0.06-0.9,0.13-1.36,0.22
					c-0.42,0.08-0.84,0.18-1.27,0.28c-0.42,0.11-0.85,0.22-1.28,0.35c-0.41,0.12-0.83,0.26-1.24,0.41c-0.41,0.15-0.83,0.3-1.25,0.47
					c-0.41,0.16-0.83,0.34-1.24,0.53c-0.42,0.19-0.84,0.38-1.26,0.59c-0.42,0.21-0.85,0.43-1.27,0.66
					c-0.33,0.18-0.66,0.36-0.99,0.55l-10.13-5.89C1023,95.73,1023.33,95.55,1023.65,95.37z"/>
				<g>
					<path class="st19" d="M858.95,223.22c-10.88,6.28-19.67,21.51-19.63,34l1.4,492.97c0.04,12.5,8.89,17.53,19.76,11.25
						l173.88-100.39c10.88-6.28,19.66-21.49,19.62-33.98l-1.4-492.97c-0.04-12.5-8.87-17.55-19.75-11.27l-21.65,12.5
						c-2.86,1.65-5.18,5.67-5.17,8.95l0.02,5.33c0.02,7.45-5.22,16.52-11.7,20.26l-96.76,55.86c-6.48,3.74-11.75,0.74-11.77-6.71
						l-0.02-5.33c-0.01-3.28-2.33-4.62-5.2-2.96L858.95,223.22z"/>
					<g>
						<g>
							<g class="st9">
								<g class="st9">
									<g class="st9">
										<path class="st10" d="M838.54,624.93c-0.01-0.38-0.02-0.76-0.02-1.14"/>
										<path class="st10" d="M838.52,623.79"/>
										<path class="st11" d="M838.6,626.15c-0.03-0.41-0.04-0.82-0.06-1.22"/>
										<path class="st11" d="M838.54,624.93"/>
										<path class="st12" d="M838.69,627.38c-0.04-0.41-0.07-0.82-0.1-1.23"/>
										<path class="st12" d="M838.6,626.15"/>
										<path class="st13" d="M838.83,628.62c-0.05-0.41-0.1-0.83-0.14-1.24"/>
										<path class="st13" d="M838.69,627.38"/>
										<path class="st14" d="M839.01,629.89c-0.07-0.42-0.13-0.85-0.18-1.27"/>
										<path class="st14" d="M838.83,628.62"/>
										<path class="st15" d="M839.23,631.17c-0.08-0.43-0.15-0.85-0.22-1.28"/>
										<path class="st15" d="M839.01,629.89"/>
										<path class="st16" d="M839.5,632.49c-0.1-0.44-0.19-0.88-0.27-1.32"/>
										<path class="st16" d="M839.23,631.17"/>
										<path class="st17" d="M839.5,632.49"/>
									</g>
								</g>
							</g>
						</g>
						<g>
							<g>
								<g>
									<polygon class="st20" points="916.62,275.88 916.63,279.95 908.15,284.85 908.19,297.85 915.07,293.88 915.08,297.76 
										908.2,301.73 908.24,316.14 916.81,311.2 916.82,315.13 903.48,322.83 903.37,283.53 									"/>
								</g>
								<g>
									<polygon class="st20" points="938.48,263.26 931.04,306.92 926.86,309.33 919.11,274.45 923.58,271.86 929.07,297.71 
										934.14,265.77 									"/>
								</g>
								<g>
									<polygon class="st20" points="947.3,258.17 947.41,297.46 942.73,300.17 942.61,260.88 									"/>
								</g>
								<g>
									<polygon class="st20" points="966.33,247.18 966.35,251.25 957.86,256.15 957.9,269.15 964.77,265.18 964.78,269.06 
										957.91,273.03 957.95,287.44 966.52,282.5 966.53,286.43 953.18,294.13 953.07,254.84 									"/>
								</g>
								<g>
									<polygon class="st20" points="997.1,229.42 991.72,271.88 988.26,273.88 983.41,247.52 978.68,279.41 975.05,281.51 
										969.36,245.43 973.33,243.14 977.08,269.25 981.61,238.51 984.98,236.56 989.71,262.11 993.21,231.66 									"/>
								</g>
								<g>
									<path class="st20" d="M1019.98,260.45c0.84-0.49,1.53-0.09,1.53,0.87l0.01,3.41c0,0.97-0.68,2.15-1.52,2.63l-157.43,90.89
										c-0.84,0.48-1.53,0.1-1.53-0.87l-0.01-3.41c0-0.96,0.68-2.15,1.52-2.63L1019.98,260.45z"/>
								</g>
								<g>
									<path class="st20" d="M893.97,308.59l4.91,16.9l-4.6,2.65l-4.53-15.85l-3.72,2.15l0.05,18.44l-4.78,2.76l-0.11-39.29
										l6.88-3.97c2.28-1.32,4.17-2.06,5.66-2.22c1.5-0.17,2.6,0.31,3.33,1.43c0.72,1.13,1.08,2.93,1.09,5.43
										c0,1.52-0.13,2.98-0.41,4.39c-0.28,1.41-0.73,2.72-1.34,3.94S894.99,307.61,893.97,308.59z M892.99,303.91
										c0.39-1.17,0.58-2.58,0.58-4.26c-0.01-2.3-0.38-3.74-1.11-4.34c-0.74-0.6-2.19-0.27-4.36,0.98l-2.11,1.22l0.04,13.01
										l1.81-1.05c1.35-0.78,2.45-1.61,3.29-2.49C891.98,306.09,892.6,305.08,892.99,303.91"/>
								</g>
							</g>
						</g>
						<g>
							<g>
								<g>
									<path class="st21" d="M945.82,661.74c0.84-0.48,1.52-0.09,1.52,0.87l0.01,3.38c0,0.96-0.68,2.14-1.51,2.62l-82.74,47.77
										c-0.84,0.48-1.52,0.09-1.52-0.87l-0.01-3.38c0-0.96,0.68-2.14,1.51-2.62L945.82,661.74z"/>
								</g>
								<g>
									<path class="st21" d="M945.79,648.92c0.84-0.48,1.52-0.09,1.52,0.87l0.01,3.38c0,0.96-0.68,2.14-1.51,2.62l-82.74,47.77
										c-0.84,0.48-1.52,0.09-1.52-0.87l-0.01-3.38c0-0.96,0.68-2.14,1.51-2.62L945.79,648.92z"/>
								</g>
								<g>
									<path class="st22" d="M995.06,580.14c7.41-4.28,14.48,0.07,6.4,15.91l-14.96,29.3l-15.08-11.95
										c-8.15-6.47-1.12-18.95,6.28-23.23c3.24-1.87,6.55-2.17,8.69,0.28C988.53,585.52,991.83,582,995.06,580.14z"/>
								</g>
								<g>
									<path class="st23" d="M986.32,562.91c19.52-11.27,35.49-2.17,35.55,20.26c0.06,22.43-15.8,49.91-35.32,61.18
										c-19.51,11.26-35.48,2.16-35.54-20.26C950.94,601.66,966.81,574.18,986.32,562.91z M1001.46,596.04
										c8.09-15.84,1.01-20.18-6.4-15.91c-3.24,1.87-6.54,5.38-8.67,10.3c-2.15-2.45-5.46-2.15-8.69-0.28
										c-7.41,4.28-14.43,16.76-6.28,23.23l15.08,11.95L1001.46,596.04"/>
								</g>
								<g>
									<path class="st21" d="M945.75,636.09c0.84-0.48,1.52-0.09,1.52,0.87l0.01,3.38c0,0.96-0.68,2.14-1.51,2.62l-82.74,47.77
										c-0.84,0.48-1.52,0.09-1.52-0.87l-0.01-3.38c0-0.96,0.68-2.14,1.51-2.62L945.75,636.09z"/>
								</g>
								<g>
									<path class="st24" d="M943.25,586.63c2.13-1.23,3.88-0.23,3.89,2.22l0.02,8.64c0.01,2.45-1.73,5.47-3.86,6.7l-78.02,45.05
										c-2.14,1.23-3.89,0.23-3.89-2.22l-0.02-8.64c-0.01-2.46,1.73-5.47,3.87-6.7L943.25,586.63z"/>
								</g>
								<g class="st9">
									<g>
										<path class="st21" d="M945.71,623.27c0.84-0.48,1.52-0.09,1.52,0.87l0.01,3.38c0,0.96-0.68,2.14-1.51,2.62l-82.74,47.77
											c-0.84,0.48-1.52,0.09-1.52-0.87l-0.01-3.38c0-0.96,0.68-2.14,1.51-2.62L945.71,623.27z"/>
									</g>
									<g>
										<path class="st21" d="M945.68,610.44c0.84-0.48,1.52-0.09,1.52,0.87l0.01,3.38c0,0.96-0.68,2.14-1.51,2.62l-82.74,47.77
											c-0.84,0.48-1.52,0.09-1.52-0.87l-0.01-3.38c0-0.96,0.68-2.14,1.51-2.62L945.68,610.44z"/>
									</g>
								</g>
							</g>
						</g>
						<g>
							<g>
								<g class="st9">
									<g>
										<path class="st21" d="M1020.75,501.4c0.83-0.48,1.52-0.09,1.52,0.87l0.01,3.38c0,0.96-0.68,2.14-1.51,2.62l-156.43,90.32
											c-0.84,0.48-1.52,0.09-1.52-0.87l-0.01-3.38c0-0.96,0.68-2.14,1.51-2.62L1020.75,501.4z"/>
									</g>
									<g>
										<path class="st25" d="M911.48,512.34c-0.06,0.28-0.02,0.5,0.07,0.65c0.2,0.39,1.55,3.27-0.47,6.16
											c-0.26,0.37-0.38,0.81-0.31,1.13c0.06,0.39,0.41,3.15-1.2,5.01c-0.23,0.26-0.38,0.6-0.43,0.89
											c-0.01,0.01-0.58,3.95-3.78,5.8l-11.02,6.36c-2.43,1.4-5.04,0.01-5.78-0.45l-0.04-12.66c0.09-0.71,0.83-6.08,3.95-9.82
											c2.08-2.5,3.2-5.16,3.78-7.93c0.49-2.33,0.6-4.72,0.61-7.14l1.59-0.92c0.45-0.1,0.96,0.18,1.4,0.82
											c0.49,0.7,0.86,1.82,0.86,3.36c0,0.85-0.11,1.83-0.37,2.94c-0.77,3.32-0.8,5.05-0.42,5.86c0.48,1.04,1.42,0.78,2.43,0.2
											l6.01-3.47c0.48-0.28,0.99-0.52,1.47-0.64c0.52-0.14,1-0.15,1.33,0.1c0.33,0.24,0.55,0.74,0.55,1.65
											C911.73,510.79,911.65,511.48,911.48,512.34z"/>
									</g>
									<g>
										<path class="st25" d="M885.99,523.04c0.25-0.14,0.48-0.16,0.64-0.06c0.17,0.09,0.27,0.29,0.27,0.58l0.05,18.17
											c0,0.29-0.1,0.6-0.27,0.89c-0.19,0.32-0.4,0.54-0.64,0.68l-5.01,2.89c-0.25,0.14-0.47,0.16-0.64,0.06
											c-0.17-0.09-0.27-0.29-0.27-0.58l-0.05-18.17c0-0.29,0.1-0.6,0.27-0.89c0.19-0.32,0.41-0.54,0.64-0.68L885.99,523.04z"/>
									</g>
									<g>
										<path class="st22" d="M913.11,511.56c0.41,0.9,1.6,4.19-0.69,7.94c0.1,1.16,0.12,4.1-1.79,6.6
											c-0.32,1.41-1.53,5.57-5.26,7.73l-11.02,6.36c-2.19,1.26-4.4,0.78-5.78,0.22l0,0.37c0,0.8-0.28,1.69-0.73,2.48
											c-0.51,0.85-1.11,1.5-1.79,1.88l-5.01,2.89c-0.7,0.4-1.33,0.44-1.79,0.18c-0.45-0.27-0.74-0.83-0.75-1.63l-0.05-18.17
											c0-0.8,0.28-1.69,0.73-2.47c0.51-0.85,1.11-1.5,1.79-1.89l5.01-2.89c0.7-0.4,1.33-0.44,1.79-0.17
											c0.08,0.05,0.17,0.11,0.24,0.18c0.72-2.2,1.87-4.79,3.7-6.98c1.63-1.96,2.51-4.09,2.99-6.34c0.5-2.37,0.57-4.93,0.56-7.53
											c0-0.51,0.36-1.14,0.81-1.4l2.39-1.38c0.18-0.1,0.36-0.17,0.54-0.21c0.75-0.17,1.62,0.22,2.27,1.16
											c0.61,0.87,1.06,2.27,1.07,4.16c0,1.03-0.12,2.2-0.43,3.53c-0.64,2.77-0.72,4.1-0.48,4.62c0.14,0.3,0.51,0.16,0.93-0.08
											l6.01-3.47c0.6-0.35,1.25-0.65,1.89-0.83c0.79-0.21,1.55-0.2,2.13,0.22c0.58,0.42,0.95,1.24,0.95,2.64
											C913.35,509.92,913.28,510.67,913.11,511.56z M911.08,519.14c2.02-2.89,0.67-5.76,0.47-6.16
											c-0.1-0.15-0.13-0.37-0.07-0.65c0.18-0.86,0.25-1.55,0.25-2.11c0-0.9-0.22-1.4-0.55-1.65c-0.33-0.25-0.81-0.24-1.33-0.1
											c-0.48,0.12-0.99,0.37-1.47,0.64l-6.01,3.47c-1.01,0.58-1.95,0.84-2.43-0.2c-0.38-0.82-0.35-2.54,0.42-5.86
											c0.26-1.1,0.37-2.09,0.37-2.94c0-1.54-0.37-2.66-0.86-3.36c-0.44-0.64-0.96-0.93-1.34-0.84l-1.65,0.94
											c-0.01,2.42-0.12,4.8-0.61,7.14c-0.59,2.77-1.7,5.43-3.78,7.93c-3.12,3.74-3.86,9.11-3.95,9.82l0.04,12.66
											c0.74,0.46,3.36,1.85,5.78,0.45l11.02-6.36c3.19-1.84,3.77-5.78,3.78-5.8c0.04-0.3,0.2-0.63,0.43-0.89
											c1.61-1.86,1.26-4.63,1.2-5.01C910.7,519.95,910.82,519.51,911.08,519.14 M886.95,541.73l-0.05-18.17
											c0-0.29-0.1-0.48-0.27-0.58c-0.16-0.1-0.39-0.08-0.64,0.06l-5.01,2.89c-0.23,0.13-0.45,0.36-0.61,0.63
											c-0.19,0.34-0.29,0.65-0.29,0.94l0.05,18.17c0,0.29,0.1,0.48,0.27,0.58c0.17,0.09,0.39,0.08,0.64-0.06l5.01-2.89
											c0.24-0.14,0.45-0.36,0.61-0.63C886.85,542.33,886.95,542.02,886.95,541.73"/>
									</g>
									<g>
										<path class="st25" d="M924,476.1c3.03-1.75,5.52-0.33,5.53,3.16l0.14,49.39c0.01,3.49-2.46,7.77-5.49,9.52l-55.91,32.28
											c-3.03,1.75-5.52,0.34-5.53-3.15l-0.14-49.39c-0.01-3.49,2.47-7.77,5.5-9.52L924,476.1z M912.42,519.51
											c2.29-3.75,1.09-7.05,0.69-7.94c0.16-0.89,0.24-1.64,0.24-2.27c0-1.39-0.38-2.21-0.95-2.64
											c-0.58-0.42-1.34-0.43-2.13-0.22c-0.64,0.18-1.29,0.48-1.89,0.83l-6.01,3.47c-0.42,0.24-0.8,0.38-0.93,0.08
											c-0.24-0.52-0.17-1.85,0.48-4.62c0.31-1.33,0.43-2.51,0.43-3.53c-0.01-1.89-0.46-3.29-1.07-4.16
											c-0.65-0.94-1.53-1.33-2.27-1.16c-0.19,0.04-0.36,0.11-0.54,0.21l-2.39,1.38c-0.45,0.26-0.81,0.89-0.81,1.4
											c0.01,2.6-0.06,5.16-0.56,7.53c-0.47,2.25-1.36,4.38-2.99,6.34c-1.83,2.19-2.98,4.78-3.7,6.98
											c-0.07-0.07-0.15-0.13-0.24-0.18c-0.46-0.26-1.09-0.23-1.79,0.17l-5.01,2.89c-0.67,0.39-1.28,1.05-1.73,1.8
											c-0.51,0.87-0.79,1.77-0.79,2.57l0.05,18.17c0,0.8,0.29,1.36,0.75,1.63c0.46,0.26,1.09,0.22,1.79-0.18l5.01-2.89
											c0.67-0.39,1.28-1.04,1.73-1.79c0.51-0.88,0.79-1.77,0.79-2.57l0-0.37c1.38,0.56,3.59,1.04,5.78-0.22l11.02-6.36
											c3.73-2.15,4.94-6.32,5.26-7.73C912.54,523.6,912.52,520.66,912.42,519.51"/>
									</g>
								</g>
								<g>
									<path class="st21" d="M1020.68,475.57c0.83-0.48,1.52-0.09,1.52,0.87l0.01,3.38c0,0.96-0.68,2.14-1.51,2.62l-82.75,47.77
										c-0.84,0.48-1.52,0.09-1.52-0.87l-0.01-3.38c0-0.96,0.68-2.14,1.51-2.62L1020.68,475.57z"/>
								</g>
								<g>
									<path class="st21" d="M1020.64,462.74c0.83-0.48,1.52-0.09,1.52,0.87l0.01,3.38c0,0.96-0.68,2.14-1.51,2.62l-82.75,47.77
										c-0.84,0.48-1.52,0.09-1.52-0.87l-0.01-3.38c0-0.96,0.68-2.14,1.51-2.62L1020.64,462.74z"/>
								</g>
								<g>
									<path class="st21" d="M1020.6,449.92c0.83-0.48,1.52-0.09,1.52,0.87l0.01,3.38c0,0.96-0.68,2.14-1.51,2.62l-82.75,47.77
										c-0.84,0.48-1.52,0.09-1.52-0.87l-0.01-3.38c0-0.96,0.68-2.14,1.51-2.62L1020.6,449.92z"/>
								</g>
								<g>
									<path class="st26" d="M1017.07,422.37c2.73-1.58,4.97-0.3,4.98,2.83l0.03,11.08c0.01,3.13-2.22,7-4.95,8.58l-75.84,43.79
										c-2.73,1.58-4.97,0.29-4.98-2.84l-0.03-11.08c-0.01-3.13,2.22-6.99,4.95-8.57L1017.07,422.37z"/>
								</g>
								<g>
									<path class="st21" d="M1020.72,489.32c0.83-0.48,1.52-0.09,1.52,0.87l0.01,3.39c0,0.96-0.68,2.14-1.51,2.62l-156.43,90.32
										c-0.84,0.48-1.52,0.09-1.52-0.87l-0.01-3.39c0-0.96,0.68-2.14,1.51-2.62L1020.72,489.32z"/>
								</g>
							</g>
						</g>
						<g>
							<g>
								<g>
									<g class="st9">
										<g>
											<polygon class="st27" points="907.9,437.43 907.9,439.5 878.33,456.57 878.33,454.51 											"/>
										</g>
										<g>
											<path class="st28" d="M907.59,399.56c0.26-0.15,0.52-0.13,0.62,0.16l1.25,3.66c0.08,0.26,0.33,0.32,0.61,0.16l4.01-2.31
												c0.63-0.36,0.88,0.41,0.38,1.13l-3.24,4.58c-0.22,0.32-0.32,0.71-0.23,0.97l1.25,3.66c0.15,0.44-0.21,1.1-0.61,1.33
												c-0.13,0.07-0.26,0.1-0.38,0.07l-3.25-0.83c-0.12-0.03-0.25,0.01-0.38,0.08s-0.27,0.2-0.38,0.36l-3.24,4.58
												c-0.12,0.17-0.25,0.29-0.38,0.37c-0.4,0.23-0.76-0.01-0.62-0.62l1.23-5.09c0.09-0.35-0.01-0.63-0.23-0.7l-3.25-0.83
												c-0.51-0.13-0.25-1.2,0.37-1.56l4.01-2.31c0.28-0.16,0.53-0.51,0.61-0.87l1.23-5.09
												C907.07,400.03,907.33,399.71,907.59,399.56z"/>
										</g>
										<g>
											<polygon class="st27" points="942.99,409.87 943,411.93 878.31,449.27 878.31,447.21 											"/>
										</g>
										<g>
											<polygon class="st27" points="942.97,402 942.97,404.07 878.29,441.42 878.29,439.35 											"/>
										</g>
										<g>
											<path class="st28" d="M885.35,412.41c0.26-0.15,0.52-0.13,0.61,0.16l1.25,3.66c0.08,0.26,0.33,0.32,0.61,0.16l4.01-2.31
												c0.63-0.36,0.89,0.4,0.39,1.12l-3.24,4.58c-0.23,0.32-0.32,0.72-0.23,0.97l1.25,3.66c0.15,0.44-0.21,1.1-0.61,1.33
												c-0.13,0.07-0.26,0.1-0.38,0.07l-3.25-0.83c-0.11-0.03-0.24,0-0.38,0.08s-0.27,0.2-0.38,0.36l-3.24,4.58
												c-0.12,0.17-0.25,0.29-0.38,0.37c-0.4,0.23-0.76-0.01-0.61-0.62l1.23-5.1c0.08-0.35-0.01-0.63-0.24-0.69l-3.25-0.83
												c-0.51-0.13-0.25-1.2,0.37-1.56l4.01-2.31c0.28-0.16,0.53-0.51,0.61-0.87l1.23-5.1
												C884.83,412.87,885.09,412.55,885.35,412.41z"/>
										</g>
										<g>
											<polygon class="st29" points="942.87,368.03 942.88,371.92 878.2,409.26 878.19,405.37 											"/>
										</g>
									</g>
									<g>
										<path class="st28" d="M929.83,386.72c0.26-0.15,0.52-0.13,0.61,0.16l1.25,3.66c0.09,0.26,0.34,0.32,0.62,0.16l4.01-2.31
											c0.63-0.36,0.88,0.41,0.38,1.13l-3.24,4.58c-0.23,0.32-0.32,0.71-0.23,0.97l1.25,3.66c0.15,0.44-0.21,1.1-0.61,1.33
											c-0.13,0.07-0.26,0.1-0.38,0.07l-3.25-0.83c-0.12-0.03-0.25,0.01-0.38,0.08c-0.13,0.08-0.27,0.2-0.38,0.36l-3.24,4.58
											c-0.12,0.17-0.25,0.29-0.38,0.37c-0.4,0.23-0.76-0.01-0.62-0.62l1.23-5.09c0.09-0.35-0.01-0.63-0.24-0.69l-3.25-0.83
											c-0.51-0.13-0.25-1.2,0.38-1.56l4.01-2.31c0.27-0.16,0.52-0.51,0.61-0.87l1.23-5.09
											C929.31,387.19,929.57,386.87,929.83,386.72z"/>
									</g>
									<g>
										<path class="st28" d="M952.07,373.88c0.26-0.15,0.52-0.13,0.61,0.16l1.25,3.66c0.09,0.26,0.33,0.32,0.61,0.16l4.01-2.31
											c0.63-0.36,0.89,0.4,0.39,1.12l-3.24,4.58c-0.23,0.32-0.32,0.72-0.23,0.97l1.25,3.66c0.15,0.44-0.21,1.1-0.61,1.33
											c-0.13,0.07-0.26,0.1-0.38,0.07l-3.25-0.83c-0.11-0.03-0.24,0-0.38,0.08c-0.13,0.08-0.27,0.2-0.38,0.36l-3.24,4.58
											c-0.12,0.17-0.25,0.29-0.38,0.37c-0.4,0.23-0.76-0.01-0.61-0.62l1.23-5.09c0.08-0.35-0.01-0.63-0.24-0.69l-3.25-0.83
											c-0.51-0.13-0.25-1.2,0.37-1.56l4.01-2.31c0.28-0.16,0.53-0.51,0.62-0.87l1.23-5.09
											C951.56,374.35,951.81,374.03,952.07,373.88z"/>
									</g>
									<g>
										<path class="st27" d="M974.32,361.04c0.26-0.15,0.52-0.13,0.62,0.16l1.25,3.66c0.08,0.26,0.33,0.32,0.61,0.16l4.01-2.31
											c0.63-0.36,0.89,0.4,0.38,1.13l-3.24,4.58c-0.22,0.32-0.32,0.71-0.23,0.96l1.25,3.66c0.15,0.44-0.21,1.1-0.61,1.33
											c-0.13,0.07-0.26,0.1-0.38,0.07l-3.25-0.83c-0.11-0.03-0.24,0-0.38,0.08c-0.13,0.08-0.27,0.2-0.38,0.36l-3.24,4.58
											c-0.12,0.17-0.25,0.29-0.38,0.37c-0.4,0.23-0.76-0.01-0.62-0.62l1.23-5.09c0.09-0.35-0.01-0.63-0.23-0.7l-3.25-0.83
											c-0.51-0.13-0.25-1.2,0.37-1.56l4.01-2.31c0.28-0.16,0.53-0.51,0.61-0.87l1.23-5.09
											C973.8,361.51,974.06,361.19,974.32,361.04z"/>
									</g>
									<g>
										<path class="st22" d="M1037.09,300.86c5.11-2.95,9.26-0.58,9.28,5.28l0.15,51.93c0.02,5.87-4.11,13.01-9.21,15.96
											L861.01,475.82c-5.11,2.95-9.26,0.58-9.28-5.29l-0.15-51.93c-0.02-5.86,4.11-13,9.21-15.95L1037.09,300.86z
											 M942.88,371.92l-0.01-3.89l-64.68,37.34l0.01,3.89L942.88,371.92 M933.23,395.06c-0.08-0.25,0-0.64,0.23-0.97l3.24-4.58
											c0.5-0.72,0.25-1.49-0.38-1.13l-4.01,2.31c-0.28,0.16-0.53,0.1-0.62-0.16l-1.25-3.66c-0.1-0.29-0.36-0.31-0.61-0.16
											s-0.52,0.47-0.61,0.87l-1.23,5.09c-0.09,0.36-0.34,0.71-0.61,0.87l-4.01,2.31c-0.63,0.36-0.88,1.43-0.38,1.56l3.25,0.83
											c0.23,0.06,0.33,0.34,0.24,0.69l-1.23,5.09c-0.14,0.61,0.21,0.85,0.62,0.62c0.13-0.07,0.26-0.19,0.38-0.37l3.24-4.58
											c0.11-0.16,0.24-0.28,0.38-0.36c0.13-0.08,0.27-0.11,0.38-0.08l3.25,0.83c0.12,0.03,0.25,0,0.38-0.07
											c0.4-0.23,0.76-0.89,0.61-1.33L933.23,395.06 M958.95,376.67c0.5-0.72,0.24-1.48-0.39-1.12l-4.01,2.31
											c-0.28,0.16-0.52,0.1-0.61-0.16l-1.25-3.66c-0.1-0.29-0.36-0.31-0.61-0.16c-0.26,0.15-0.52,0.47-0.61,0.87l-1.23,5.1
											c-0.09,0.36-0.34,0.71-0.62,0.87l-4.01,2.31c-0.62,0.36-0.88,1.43-0.37,1.56l3.25,0.83c0.22,0.06,0.32,0.34,0.24,0.69
											l-1.23,5.09c-0.15,0.61,0.21,0.86,0.61,0.62c0.13-0.07,0.26-0.19,0.38-0.37l3.24-4.58c0.11-0.16,0.25-0.28,0.38-0.36
											c0.13-0.08,0.27-0.11,0.38-0.08l3.25,0.83c0.12,0.03,0.26,0,0.38-0.07c0.4-0.23,0.76-0.89,0.61-1.33l-1.25-3.66
											c-0.09-0.25,0-0.64,0.23-0.97L958.95,376.67 M888.75,420.74c-0.09-0.25,0-0.64,0.23-0.97l3.24-4.58
											c0.5-0.72,0.24-1.48-0.39-1.12l-4.01,2.31c-0.28,0.16-0.53,0.1-0.61-0.16l-1.25-3.66c-0.1-0.29-0.36-0.31-0.61-0.16
											c-0.26,0.15-0.52,0.47-0.61,0.87l-1.23,5.1c-0.08,0.36-0.33,0.71-0.61,0.87l-4.01,2.31c-0.63,0.36-0.88,1.43-0.37,1.56
											l3.25,0.83c0.22,0.06,0.32,0.34,0.24,0.69l-1.23,5.1c-0.15,0.61,0.21,0.86,0.61,0.62c0.13-0.07,0.26-0.19,0.38-0.37
											l3.24-4.58c0.11-0.16,0.25-0.28,0.38-0.36c0.13-0.08,0.27-0.11,0.38-0.08l3.25,0.83c0.12,0.03,0.25,0,0.38-0.07
											c0.4-0.23,0.76-0.89,0.61-1.33L888.75,420.74 M981.19,363.83c0.51-0.72,0.25-1.49-0.38-1.12l-4.01,2.31
											c-0.28,0.16-0.53,0.1-0.61-0.16l-1.25-3.66c-0.1-0.29-0.36-0.31-0.62-0.16c-0.26,0.15-0.52,0.47-0.62,0.87l-1.23,5.09
											c-0.08,0.36-0.33,0.71-0.61,0.87l-4.01,2.31c-0.63,0.36-0.88,1.43-0.37,1.56l3.25,0.83c0.22,0.06,0.32,0.34,0.23,0.7
											l-1.23,5.09c-0.14,0.61,0.22,0.85,0.62,0.62c0.13-0.07,0.26-0.19,0.38-0.37l3.24-4.58c0.11-0.16,0.25-0.28,0.38-0.36
											c0.13-0.08,0.27-0.11,0.38-0.08l3.25,0.83c0.12,0.03,0.25,0,0.38-0.07c0.4-0.23,0.76-0.89,0.61-1.33l-1.25-3.66
											c-0.09-0.25,0-0.64,0.23-0.96L981.19,363.83 M910.99,407.9c-0.08-0.25,0.01-0.65,0.23-0.97l3.24-4.58
											c0.5-0.72,0.25-1.49-0.38-1.12l-4.01,2.31c-0.28,0.16-0.53,0.1-0.61-0.16l-1.25-3.66c-0.1-0.28-0.36-0.31-0.62-0.16
											c-0.26,0.15-0.52,0.47-0.61,0.87l-1.23,5.09c-0.08,0.36-0.33,0.71-0.61,0.87l-4.01,2.31c-0.63,0.36-0.88,1.43-0.37,1.56
											l3.25,0.83c0.22,0.06,0.32,0.34,0.23,0.7l-1.23,5.1c-0.14,0.61,0.22,0.85,0.62,0.62c0.13-0.07,0.26-0.19,0.38-0.37
											l3.24-4.58c0.11-0.16,0.24-0.28,0.38-0.36c0.13-0.08,0.27-0.11,0.38-0.08l3.25,0.83c0.12,0.03,0.25,0,0.38-0.07
											c0.4-0.23,0.76-0.89,0.61-1.33L910.99,407.9 M942.97,404.07l-0.01-2.07l-64.68,37.34l0.01,2.07L942.97,404.07 M943,411.93
											l-0.01-2.06l-64.68,37.34l0.01,2.06L943,411.93 M907.9,439.5l-0.01-2.06l-29.57,17.07l0.01,2.06L907.9,439.5"/>
									</g>
								</g>
							</g>
						</g>
					</g>
					<g class="st9">
						<g>
							<g>
								<defs>
									<polyline id="SVGID_3_" points="844.72,780.2 845.13,784.53 846.29,788.11 848.12,790.9 850.53,792.86 853.46,793.94 
										856.81,794.09 860.51,793.28 864.48,791.44 1038.36,691.05 1038.36,691.05 1042.33,688.3 1046.02,684.85 1049.36,680.84 
										1052.26,676.39 1054.66,671.66 1056.46,666.77 1057.59,661.86 1057.98,657.07 1056.58,164.1 1056.17,159.77 
										1055.01,156.18 1053.19,153.39 1050.77,151.42 1047.85,150.34 1044.5,150.18 1040.8,151 1036.83,152.83 1015.19,165.33 
										1014.15,166.05 1013.17,166.96 1012.3,168.02 1011.53,169.19 1010.9,170.44 1010.42,171.73 1010.12,173.02 1010.02,174.28 
										1010.04,179.6 1009.8,182.46 1009.13,185.39 1008.05,188.3 1006.63,191.12 1004.89,193.77 1002.9,196.17 1000.7,198.23 
										998.34,199.87 901.58,255.73 899.21,256.82 897.01,257.31 895.01,257.21 893.27,256.57 891.83,255.4 890.74,253.74 
										890.05,251.6 889.8,249.02 889.79,243.69 889.68,242.56 889.38,241.61 888.9,240.88 888.26,240.36 887.49,240.08 
										886.61,240.03 885.63,240.25 884.59,240.73 862.95,253.22 858.99,255.97 855.29,259.43 851.95,263.44 849.05,267.89 
										846.65,272.63 844.84,277.52 843.71,282.43 843.32,287.23 844.72,780.2 									"/>
								</defs>
								<clipPath id="SVGID_4_">
									<use xlink:href="#SVGID_3_"  style="overflow:visible;"/>
								</clipPath>
							</g>
						</g>
					</g>
				</g>
				<g>
					<polygon class="st17" points="1032.8,101.81 1022.67,95.92 848.78,196.31 858.92,202.2 					"/>
				</g>
				<g>
					<path d="M1032.82,108.32c13.98-8.07,25.4-1.57,25.45,14.5l1.4,492.97c0.05,16.07-11.3,35.71-25.28,43.79L860.5,759.97
						c-13.98,8.07-25.4,1.57-25.45-14.5l-1.4-492.97c-0.05-16.07,11.3-35.71,25.28-43.79L1032.82,108.32z M840.72,742.2
						c0.04,12.5,8.89,17.53,19.76,11.25l173.88-100.39c10.87-6.28,19.66-21.49,19.62-33.98l-1.4-492.97
						c-0.04-12.5-8.87-17.55-19.75-11.27l-21.65,12.5c-2.86,1.65-5.18,5.67-5.17,8.95l0.01,5.33c0.02,7.45-5.22,16.52-11.7,20.26
						l-96.76,55.86c-6.48,3.74-11.75,0.74-11.77-6.71l-0.01-5.33c-0.01-3.28-2.33-4.62-5.2-2.96l-21.64,12.49
						c-10.87,6.28-19.67,21.51-19.63,34L840.72,742.2"/>
				</g>
				<g>
					<path class="st30" d="M1032.8,101.81c17.14-9.89,31.08-1.95,31.13,17.74l1.4,492.97c0.06,19.69-13.79,43.68-30.93,53.57
						L860.52,766.48c-17.14,9.89-31.07,1.95-31.13-17.74l-1.4-492.97c-0.06-19.69,13.79-43.68,30.93-53.57L1032.8,101.81z
						 M835.05,745.47c0.05,16.07,11.46,22.57,25.45,14.5l173.88-100.39c13.98-8.07,25.33-27.72,25.28-43.79l-1.4-492.97
						c-0.05-16.07-11.46-22.57-25.45-14.5L858.93,208.71c-13.98,8.07-25.33,27.72-25.28,43.79L835.05,745.47"/>
				</g>
				<path class="st10" d="M817.86,249.88c0-0.46,0-0.93,0.02-1.4c0.01-0.5,0.04-1,0.07-1.5c0.03-0.5,0.07-1,0.12-1.51
					c0.05-0.5,0.1-1.01,0.17-1.52c0.07-0.52,0.14-1.04,0.22-1.56c0.08-0.52,0.17-1.04,0.27-1.57c0.1-0.54,0.21-1.08,0.33-1.62
					c0.12-0.54,0.24-1.08,0.38-1.63c0.14-0.55,0.28-1.1,0.43-1.65c0.15-0.55,0.31-1.09,0.48-1.64c0.16-0.54,0.34-1.07,0.51-1.6
					c0.18-0.53,0.36-1.06,0.55-1.58c0.18-0.51,0.37-1.01,0.57-1.52c0.2-0.5,0.4-1.01,0.61-1.51c0.21-0.49,0.42-0.99,0.63-1.48
					c0.22-0.5,0.45-1,0.68-1.5c0.26-0.55,0.52-1.09,0.79-1.64c0.31-0.62,0.63-1.25,0.96-1.86c0.49-0.92,1-1.83,1.53-2.73
					c0.73-1.24,1.5-2.47,2.3-3.67c0.64-0.95,1.29-1.88,1.96-2.8c0.45-0.61,0.91-1.22,1.38-1.81c0.39-0.5,0.79-0.99,1.2-1.48
					c0.4-0.47,0.79-0.94,1.2-1.4c0.4-0.45,0.8-0.9,1.21-1.34c0.42-0.45,0.84-0.89,1.27-1.33c0.43-0.44,0.87-0.87,1.31-1.29
					c0.45-0.43,0.9-0.85,1.36-1.27c0.46-0.41,0.92-0.81,1.38-1.2c0.46-0.39,0.92-0.76,1.38-1.13c0.45-0.36,0.9-0.7,1.36-1.04
					c0.45-0.33,0.9-0.65,1.35-0.96c0.44-0.3,0.88-0.59,1.32-0.87c0.44-0.28,0.87-0.55,1.31-0.8c0.1-0.06,0.2-0.12,0.31-0.18
					l10.13,5.89c-0.1,0.06-0.2,0.12-0.3,0.18c-0.44,0.26-0.88,0.53-1.31,0.8c-0.44,0.28-0.88,0.57-1.32,0.87
					c-0.45,0.31-0.9,0.63-1.35,0.96c-0.46,0.34-0.91,0.68-1.36,1.04c-0.46,0.37-0.92,0.74-1.38,1.13c-0.46,0.39-0.92,0.79-1.38,1.2
					c-0.46,0.41-0.91,0.84-1.36,1.27c-0.44,0.42-0.88,0.85-1.31,1.29c-0.43,0.44-0.85,0.88-1.27,1.33
					c-0.41,0.44-0.81,0.88-1.21,1.34c-0.4,0.46-0.8,0.93-1.2,1.4c-0.4,0.49-0.8,0.98-1.2,1.48c-0.47,0.59-0.93,1.2-1.38,1.81
					c-0.67,0.92-1.33,1.85-1.96,2.8c-0.8,1.2-1.57,2.42-2.3,3.67c-0.53,0.9-1.04,1.81-1.53,2.73c-0.33,0.62-0.65,1.24-0.96,1.86
					c-0.27,0.54-0.54,1.09-0.79,1.64c-0.23,0.5-0.46,1-0.68,1.5c-0.22,0.49-0.43,0.98-0.63,1.48c-0.21,0.5-0.41,1-0.61,1.51
					c-0.2,0.51-0.39,1.01-0.57,1.52c-0.19,0.53-0.37,1.05-0.55,1.58c-0.18,0.53-0.35,1.07-0.51,1.6c-0.17,0.55-0.33,1.09-0.48,1.64
					c-0.15,0.55-0.3,1.1-0.43,1.65c-0.13,0.54-0.26,1.08-0.38,1.63c-0.12,0.54-0.23,1.08-0.33,1.62c-0.1,0.52-0.19,1.05-0.27,1.57
					c-0.08,0.52-0.16,1.04-0.22,1.56c-0.06,0.51-0.12,1.01-0.17,1.52c-0.05,0.51-0.09,1.01-0.12,1.51c-0.03,0.5-0.06,1-0.07,1.5
					c-0.01,0.47-0.02,0.94-0.02,1.4l1.4,492.52l0,0c0,0.51,0.01,1.55,0.03,2.04c0.02,0.5,0.05,0.98,0.09,1.46
					c0.04,0.51,0.09,1.01,0.15,1.49c0.06,0.5,0.14,1,0.22,1.48c0.09,0.52,0.19,1.02,0.3,1.52c0.12,0.54,0.26,1.07,0.41,1.58
					c0.16,0.56,0.35,1.11,0.54,1.63c0.23,0.61,0.48,1.2,0.74,1.76c0.36,0.75,0.75,1.46,1.17,2.12c1.44,2.25,3.25,4.02,5.37,5.25
					l-10.13-5.89c-2.12-1.23-3.94-3-5.38-5.25c-0.42-0.67-0.81-1.37-1.17-2.12c-0.27-0.56-0.52-1.15-0.74-1.76
					c-0.2-0.53-0.38-1.07-0.54-1.63c-0.15-0.51-0.29-1.04-0.41-1.58c-0.11-0.49-0.21-1-0.3-1.52c-0.08-0.48-0.16-0.98-0.22-1.48
					c-0.06-0.49-0.11-0.99-0.15-1.49l-0.09-1.46c-0.02-0.42-0.03-1.08-0.03-1.59l0,0L817.86,249.88z"/>
			</g>
		</g>
	</g>
</g>
<g>
	<g>
		<g>
			<path class="st31" d="M1237.62,127.68c1.89-1.09,3.79-1.36,5.24-0.53c1.45,0.82,2.18,2.59,2.18,4.77
				c0.01,2.18-0.71,4.77-2.15,7.27l-0.99,1.7l-10.43,18.07l-10.5-5.98l-0.99-0.56c-2.9-1.65-2.92-7.04-0.03-12.03
				c1.44-2.49,3.33-4.41,5.23-5.51c1.89-1.09,3.79-1.36,5.24-0.54l0.99,0.56l0.98-1.7C1233.84,130.7,1235.73,128.77,1237.62,127.68z
				"/>
		</g>
		<g>
			<path class="st32" d="M1265.71,98.46c3.29-1.9,5.97-0.38,5.98,3.41l0.1,36.68c0.01,3.79-2.65,8.39-5.94,10.3l-53.48,30.88
				c-1.86,1.08-3.66,2.9-5.03,5.14l-16.95,27.51l-0.06-19.93l-0.11-40.41c-0.02-5.51,3.86-12.22,8.65-14.99L1265.71,98.46z
				 M1242.9,139.18c1.44-2.5,2.15-5.09,2.15-7.27c-0.01-2.18-0.73-3.94-2.18-4.77c-1.45-0.82-3.35-0.56-5.24,0.53
				c-1.89,1.09-3.78,3.02-5.23,5.51l-0.98,1.7l-0.99-0.56c-1.45-0.82-3.35-0.56-5.24,0.54c-1.9,1.09-3.79,3.02-5.23,5.51
				c-2.88,4.99-2.87,10.38,0.03,12.03l0.99,0.56l10.5,5.98l10.43-18.07L1242.9,139.18"/>
		</g>
	</g>
</g>
<g>
	<g>
		<g>
			<path class="st29" d="M942.86,57.21c1.23-0.71,2.87-0.57,3.55,1.82c1.19,4.15-1.02,8.08,0.87,7.45c0.69-0.23,0.91-0.31,2.04-0.96
				c0.34-0.2,0.77-0.45,1.32-0.77c0.22-0.13,0.45-0.24,0.66-0.33l4.33-2.5c1.22-0.7,2.22-0.13,2.22,1.27c0,1.34-0.89,2.96-2.04,3.72
				c0.86-0.15,1.48,0.44,1.49,1.54c0,1.41-0.98,3.12-2.21,3.82l-0.33,0.19c0.89-0.19,1.54,0.41,1.54,1.54
				c0,1.35-0.91,2.98-2.06,3.73c0.46,0.16,0.76,0.65,0.76,1.38c0,1.28-0.9,2.86-2.02,3.51l-3.07,1.77l-0.1,0.06l-0.24,0.14
				l-4.92,2.84c-0.39,0.12-4.11,1.7-6.09,0.26l-4.37,2.49l0.04-12.85c0.2-0.13,4.01-2.66,6.46-7.93c1.09-2.33,0.84-7.58,0.64-9.72
				C941.24,58.75,941.94,57.74,942.86,57.21z"/>
		</g>
		<g>
			<path class="st32" d="M970.85,32c3.15-1.82,5.7-0.36,5.71,3.26l0.1,35.05c0.01,3.62-2.53,8.01-5.68,9.83l-51.09,29.5
				c-1.77,1.02-3.49,2.78-4.81,4.91l-16.19,26.28l-0.05-19.04l-0.11-38.6c-0.01-5.27,3.69-11.68,8.27-14.32L970.85,32z
				 M957.31,68.44c0-1.11-0.63-1.69-1.49-1.54c1.14-0.76,2.04-2.38,2.04-3.72c0-1.4-1-1.97-2.22-1.27l-4.33,2.5
				c-0.22,0.09-0.44,0.2-0.66,0.33c-0.55,0.32-0.98,0.58-1.32,0.77c-1.13,0.65-1.36,0.74-2.04,0.96c-1.88,0.63,0.33-3.3-0.87-7.45
				c-0.68-2.38-2.32-2.53-3.55-1.82c-0.92,0.53-1.62,1.54-1.53,2.45c0.2,2.15,0.45,7.39-0.64,9.72c-2.45,5.27-6.26,7.8-6.46,7.93
				l-0.04,12.85l4.37-2.49c1.98,1.44,5.7-0.14,6.09-0.31l4.92-2.79l0.24-0.14l0.1-0.06l3.07-1.77c1.12-0.65,2.03-2.22,2.02-3.51
				c0-0.73-0.3-1.22-0.76-1.38c1.16-0.76,2.07-2.38,2.06-3.73c0-1.13-0.64-1.72-1.54-1.54l0.33-0.19
				C956.32,71.56,957.31,69.85,957.31,68.44 M929.44,95.34l0.04-18.77l-7.5,4.32l-0.04,18.76L929.44,95.34"/>
		</g>
		<g>
			<polygon class="st29" points="921.98,80.9 929.48,76.57 929.44,95.34 921.93,99.66 			"/>
		</g>
	</g>
</g>
<g>
	<g>
		<g>
			<path class="st28" d="M1124.14,135.86c0.4-0.23,0.8-0.2,0.94,0.25l2.39,7c0.14,0.39,0.52,0.49,0.95,0.24l7.66-4.42
				c0.96-0.56,1.37,0.63,0.59,1.73l-6.18,8.74c-0.35,0.5-0.5,1.09-0.36,1.49l2.39,7c0.23,0.67-0.33,1.69-0.95,2.05
				c-0.19,0.11-0.4,0.16-0.58,0.11l-6.2-1.59c-0.18-0.05-0.38,0-0.59,0.12c-0.21,0.12-0.41,0.31-0.58,0.56l-6.18,8.74
				c-0.18,0.26-0.39,0.45-0.58,0.56c-0.62,0.36-1.18-0.02-0.96-0.95l2.35-9.73c0.13-0.55-0.02-0.98-0.37-1.07l-6.2-1.59
				c-0.78-0.2-0.39-1.85,0.58-2.4l7.66-4.42c0.43-0.25,0.81-0.78,0.94-1.33l2.34-9.73C1123.34,136.59,1123.74,136.09,1124.14,135.86
				z"/>
		</g>
		<g>
			<path class="st32" d="M1124.05,124.55c12.98-7.24,23.37-0.6,22.61,15.04c-0.66,13.5-9.83,29.47-21.22,36.96
				c-0.54,0.36-1.09,0.69-1.62,1c-2.86,1.65-5.6,2.63-8.13,3c-0.8,0.11-1.65,0.43-2.5,0.92c-0.68,0.39-1.36,0.9-2.03,1.51
				l-8.93,8.26l2.16-9.57c0.54-2.4,0.36-4.56-0.58-5.91c-1.99-2.83-3.11-6.81-3.05-11.77c0.16-14.44,10.48-32.05,22.9-39.23
				C1123.79,124.7,1123.92,124.62,1124.05,124.55z M1136.66,140.66c0.78-1.1,0.37-2.29-0.59-1.73l-7.66,4.42
				c-0.43,0.25-0.81,0.15-0.95-0.24l-2.39-7c-0.15-0.44-0.55-0.48-0.94-0.25c-0.4,0.23-0.8,0.72-0.95,1.34l-2.34,9.73
				c-0.13,0.55-0.51,1.08-0.94,1.33l-7.66,4.42c-0.96,0.56-1.36,2.2-0.58,2.4l6.2,1.59c0.35,0.09,0.5,0.52,0.37,1.07l-2.35,9.73
				c-0.22,0.93,0.33,1.31,0.96,0.95c0.19-0.11,0.39-0.3,0.58-0.56l6.18-8.74c0.17-0.25,0.38-0.44,0.58-0.56
				c0.21-0.12,0.41-0.16,0.59-0.12l6.2,1.59c0.19,0.05,0.39,0,0.58-0.11c0.62-0.36,1.17-1.38,0.95-2.05l-2.39-7
				c-0.14-0.39,0.01-0.99,0.36-1.49L1136.66,140.66"/>
		</g>
	</g>
</g>
<g>
	<g>
		<g>
			<path class="st22" d="M700.95,231.8c2.15-1.24,3.91-0.23,3.91,2.23c0.01,2.47-1.74,5.5-3.89,6.74c-2.15,1.24-3.91,0.24-3.92-2.23
				C697.05,236.07,698.8,233.04,700.95,231.8z"/>
		</g>
		<g class="st9">
			<g>
				<path class="st23" d="M721.63,204.1c3.01-1.74,5.49-0.33,5.5,3.12l0.08,27.87c0.01,3.46-2.45,7.71-5.46,9.45l-36.56,21.11
					l-9.3,16.11c-0.12,0.2-0.27,0.36-0.42,0.45c-0.08,0.05-0.17,0.08-0.25,0.09c-0.23,0.02-0.38-0.14-0.38-0.43l-0.05-16.51
					l-0.01-1.92l-0.07-25.95c-0.01-3.46,2.45-7.71,5.46-9.45L721.63,204.1z M688.05,248.23c2.15-1.24,3.9-4.27,3.89-6.74
					c-0.01-2.47-1.77-3.47-3.91-2.23c-2.15,1.24-3.9,4.27-3.89,6.74C684.14,248.47,685.9,249.48,688.05,248.23 M700.98,240.77
					c2.15-1.24,3.9-4.27,3.89-6.74c-0.01-2.47-1.76-3.47-3.91-2.23c-2.15,1.24-3.9,4.27-3.89,6.74
					C697.07,241.01,698.83,242.01,700.98,240.77 M713.91,233.31c2.15-1.24,3.9-4.27,3.89-6.74c-0.01-2.47-1.76-3.47-3.91-2.23
					c-2.15,1.24-3.9,4.27-3.89,6.74C710,233.54,711.76,234.55,713.91,233.31"/>
			</g>
			<g>
				<path class="st22" d="M688.03,239.26c2.15-1.24,3.91-0.23,3.91,2.23c0.01,2.47-1.74,5.5-3.89,6.74
					c-2.15,1.24-3.91,0.24-3.92-2.23C684.12,243.54,685.87,240.5,688.03,239.26z"/>
			</g>
		</g>
		<g>
			<path class="st22" d="M713.88,224.33c2.15-1.24,3.91-0.23,3.91,2.23c0.01,2.47-1.74,5.5-3.89,6.74
				c-2.15,1.24-3.91,0.24-3.92-2.23C709.98,228.61,711.73,225.58,713.88,224.33z"/>
		</g>
	</g>
</g>
<g>
	<g>
		<g class="st33">
			<ellipse class="st34" cx="802.99" cy="960.26" rx="61.85" ry="35.71"/>
		</g>
		<g>
			<g>
				<path class="st35" d="M985.57,549.59l7.15,10.96l2.87,4.39c0,0,6.35-7.5,12.2-9.17c5.84-1.65,18.68-16.17,20.53-21.69
					c1.86-5.54,5.97-15.95,4.45-18.19c-0.23-0.35-0.52-0.65-0.89-0.96c-2.01-1.79-5.69-3.08-5.69-3.08s-10.59,5.54-11.77,6.36
					c-1.02,0.7-8.75,11.79-10.68,14.6c-0.29,0.42-0.45,0.64-0.45,0.64l0.21-0.44l5.12-10.02c0,0,0.57-3.77-0.4-3.97
					c-0.97-0.24-6.69,5.54-6.69,5.54s-6.89,9.06-7.16,11.67C994.07,538.83,985.57,549.59,985.57,549.59z"/>
				<g class="st36">
					<path class="st37" d="M992.72,560.55l2.87,4.39c0,0,6.35-7.5,12.2-9.17c5.84-1.65,18.68-16.17,20.53-21.69
						c1.86-5.54,5.97-15.95,4.45-18.19c-0.23-0.35-0.52-0.65-0.89-0.96c-0.87,3.64-3.74,13.42-10.66,22.04
						C1013.02,547.15,1001.6,552.45,992.72,560.55z"/>
				</g>
				
					<linearGradient id="SVGID_5_" gradientUnits="userSpaceOnUse" x1="1113.5259" y1="581.8225" x2="1116.9691" y2="581.8225" gradientTransform="matrix(-0.8523 -0.5231 -0.5231 0.8523 2259.5056 615.3568)">
					<stop  offset="5.376340e-03" style="stop-color:#EBEAF0"/>
					<stop  offset="0.9892" style="stop-color:#E5E4EC"/>
				</linearGradient>
				<path class="st38" d="M1000.12,536.06l3.38-3.05l5.12-10.02c0,0,0.57-3.77-0.4-3.97
					C1008.21,519.02,999.32,531.73,1000.12,536.06z"/>
			</g>
			<path class="st39" d="M753.19,962.7c-0.55,3.45,8.65,6.96,15.36,7.19c0.81,0.03,1.59,0.03,2.29-0.05
				c6.63-0.66,46.53-19.52,48.69-22.54c2.17-3.03,0-8.67,0-8.67l-40.07,6.35l-8.37,0.91l-13.11,1.41
				C757.98,947.29,753.84,958.84,753.19,962.7z"/>
			
				<linearGradient id="SVGID_6_" gradientUnits="userSpaceOnUse" x1="1329.8845" y1="954.2596" x2="1381.8368" y2="954.2596" gradientTransform="matrix(-1 0 0 1 2150.3813 0)">
				<stop  offset="5.376340e-03" style="stop-color:#EBEAF0"/>
				<stop  offset="0.9892" style="stop-color:#E5E4EC"/>
			</linearGradient>
			<path class="st40" d="M768.54,969.89c0.81,0.03,1.59,0.03,2.29-0.05c6.63-0.66,46.53-19.52,48.69-22.54c2.17-3.03,0-8.67,0-8.67
				l-40.07,6.35l-8.37,0.91C771.09,945.88,771.27,960.05,768.54,969.89z"/>
			<path class="st39" d="M793.43,978.2c0,0,2.07,3.43,8.55,4.41c3.13,0.5,7.31,0.43,12.76-0.91c16.74-4.04,33.64-14.4,35.53-16.57
				c1.89-2.14,3.78-15.81,1.44-19.29c-2.37-3.51-15.76,10.24-30.13,9.43l-7.94,0.38l-13.77,0.66
				C799.86,956.32,797.21,960.68,793.43,978.2z"/>
			
				<linearGradient id="SVGID_7_" gradientUnits="userSpaceOnUse" x1="1297.5883" y1="964.0905" x2="1348.4062" y2="964.0905" gradientTransform="matrix(-1 0 0 1 2150.3813 0)">
				<stop  offset="5.376340e-03" style="stop-color:#EBEAF0"/>
				<stop  offset="0.9892" style="stop-color:#E5E4EC"/>
			</linearGradient>
			<path class="st41" d="M801.98,982.62c3.13,0.5,7.31,0.43,12.76-0.91c16.74-4.04,33.64-14.4,35.53-16.57
				c1.89-2.14,3.78-15.81,1.44-19.29c-2.37-3.51-15.76,10.24-30.13,9.43l-7.94,0.38l-0.3,6.78
				C813.32,962.44,808.63,974.35,801.98,982.62z"/>
			<path class="st42" d="M718.19,629.23c0,0,1.72,34.19,28.67,63.5l8.25-15.53l4.14-7.77c0,0-18.81-26.15-17.95-38.1
				c0.86-11.93,14.55-52.12,14.55-52.12l-3-24.99l-3.08-25.57C749.76,528.64,730.16,547.12,718.19,629.23z"/>
			
				<linearGradient id="SVGID_8_" gradientUnits="userSpaceOnUse" x1="1366.3357" y1="582.3871" x2="1426.4878" y2="649.017" gradientTransform="matrix(-1 0 0 1 2150.3813 0)">
				<stop  offset="5.376340e-03" style="stop-color:#EBEAF0"/>
				<stop  offset="0.9892" style="stop-color:#E5E4EC"/>
			</linearGradient>
			<path class="st43" d="M755.1,677.19l4.14-7.77c0,0-18.81-26.15-17.95-38.1c0.86-11.93,14.55-52.12,14.55-52.12l-3-24.99
				c-5.8,17.53-18.46,56.41-19.49,65.92C732.11,631.55,739.19,650.41,755.1,677.19z"/>
			<path class="st35" d="M748.48,845.05c1.44,20.98,10.16,65.54,9.2,78.15c-0.98,12.58,0.08,22.82,0.08,22.82
				c0,1.61,1.06,3.23,3.2,4.46c2.77,1.59,6.71,2.14,10.26,1.66c1.89-0.25,3.71-0.83,5.17-1.66c2.57-1.51,3.08-5.5,3.08-5.5
				s-5.07-95.4,10.67-134.18l-9-2.04l-0.91-0.2l-22.54-5.07C757.68,803.49,747.02,824.07,748.48,845.05z"/>
			<g class="st36">
				<path class="st37" d="M771.22,952.14c1.89-0.25,3.71-0.83,5.17-1.66c2.57-1.51,3.08-5.5,3.08-5.5s-5.07-95.4,10.67-134.18
					l-9-2.04c-2.52,12.53-8.27,43.27-9.56,70.56C770.44,903.2,770.85,934.41,771.22,952.14z"/>
			</g>
			<path class="st35" d="M790.58,855.35c1.44,20.98,10.16,65.54,9.2,78.15c-0.98,12.58,0.08,22.82,0.08,22.82
				c0,1.61,1.06,3.23,3.2,4.46c2.77,1.59,6.71,2.14,10.26,1.66c1.89-0.25,3.71-0.83,5.17-1.66c2.57-1.51,3.08-5.5,3.08-5.5
				s-5.07-95.4,10.67-134.18l-9-2.04l-0.91-0.2l-22.54-5.07C799.78,813.79,789.12,834.37,790.58,855.35z"/>
			<g class="st36">
				<path class="st37" d="M813.32,962.44c1.89-0.25,3.71-0.83,5.17-1.66c2.57-1.51,3.08-5.5,3.08-5.5s-5.07-95.4,10.67-134.18
					l-9-2.04c-2.52,12.53-8.27,43.27-9.56,70.56C812.54,913.5,812.95,944.72,813.32,962.44z"/>
			</g>
			<path class="st42" d="M742.65,739.2c6.38,36.44,5.67,83.37,5.67,83.37s47.05,32.86,76.28,25.49c4.61-1.16,8.78-3.3,12.23-6.73
				c0,0,6.73-61.38,8.9-80.85c2.17-19.47,0.38-61.13-8.9-82.28c-9.28-21.13,6.03-46.12,8.17-46.85c1.61-0.58,7.29-7.56,9.41-18.31
				c0.48-2.32,0.78-4.84,0.83-7.49c0.05-1.46,0-2.98-0.13-4.54c-1.44-17.32-4.34-30.82-4.34-30.82s-74.31-46.8-101.02-41.56
				c0,0-10.82,5.24-5.77,45.67c5.04,40.42,22.37,38.96,7.21,82.26C736.04,699.86,736.24,702.74,742.65,739.2z"/>
			<path class="st42" d="M829.21,585.13c-4.29,7.36-2.57,13.16,2.28,17.56c2.67,2.43,6.31,4.44,10.44,6.03
				c8.3,3.24,18.5,4.77,26.47,4.87c19.01,0.2,68.82-1.43,68.82-1.43s50.12-35.58,58.69-43.22c1.12-0.66,2.16-1.75,3.03-3.25
				c2.33-3.99,2.96-9.92,1.96-15.53c-0.51-2.93-1.46-5.76-2.83-8.16c-3.28-5.74-7.97-7.31-11.5-4.4c0,0-38.26,35.17-55.43,43.63
				l-70.77-11.35C860.38,569.88,840.69,565.44,829.21,585.13z"/>
			<g>
				<path class="st35" d="M842.45,474.43c0,0-0.55,44.18-9.88,55.43c-9.33,11.25-6.7-45.48-6.7-45.48L842.45,474.43z"/>
				<g class="st36">
					<path class="st37" d="M842.45,474.43c0,0-0.55,44.18-9.88,55.43c-9.33,11.25-6.7-45.48-6.7-45.48L842.45,474.43z"/>
				</g>
				<path class="st39" d="M779.94,558.03c7.23,5.84,30.74,2.38,37.76-1.37c0.32-0.17,0.56-0.43,0.86-0.52
					c6.19-1.68,20.62,7.33,20.62,7.33c3.91-12.11-5.87-55.03-3.42-62.6c2.45-7.58,7.17-20.99,7.17-33.83
					c0-9.36-11.83-14.23-18.2-16.16c-1.89-0.58-3.71-1.31-5.56-2.06c-2.51-1.01-8.76-2.21-24.11-0.77
					c-1.09,0.09-2.25,0.21-3.46,0.34c-26.83,2.92-25.07,30.91-23.91,46.95c0.43,5.8,0.49,12.17,0.43,17.97
					c-0.11,8.99-1.85,17.84-4.42,26.47c-0.24,0.84-0.45,1.72-0.58,2.62C762.31,547.72,772.36,551.91,779.94,558.03z"/>
				<g class="st44">
					<path class="st45" d="M808.79,480c-4.81,23.59,4.68,61.63,8.91,76.66c0.32-0.17,0.56-0.45,0.86-0.52
						c6.96-1.58,20.62,7.33,20.62,7.33c3.91-12.11-5.87-55.03-3.42-62.6c2.45-7.58,7.17-20.99,7.17-33.83
						c0-9.36-11.83-14.23-18.2-16.16c-1.89-0.58-3.71-1.31-5.56-2.06c-2.51-1.01-8.76-2.21-24.11-0.77
						C802.93,452.3,812.55,461.45,808.79,480z"/>
				</g>
			</g>
		</g>
	</g>
</g>
<g>
	<path class="st46" d="M1119.48,238.92c0.26-0.07,0.52-0.12,0.77-0.15c0.04,0,0.09-0.01,0.13-0.01c0.25-0.02,0.5-0.03,0.74,0
		c0.22,0.02,0.43,0.07,0.64,0.13c0.03,0.01,0.05,0.02,0.08,0.03c0.19,0.07,0.38,0.15,0.55,0.25l-5.66-3.29
		c-0.01-0.01-0.02-0.01-0.04-0.02c-0.1-0.06-0.21-0.11-0.32-0.16c-0.06-0.03-0.13-0.05-0.2-0.07c-0.03-0.01-0.05-0.02-0.08-0.03
		c-0.02-0.01-0.04-0.01-0.06-0.02c-0.11-0.03-0.23-0.06-0.35-0.08c-0.07-0.01-0.15-0.02-0.23-0.03c-0.05-0.01-0.1-0.01-0.15-0.01
		c-0.14-0.01-0.28-0.01-0.42,0c-0.06,0-0.12,0.01-0.18,0.02c-0.04,0-0.09,0.01-0.13,0.01c-0.06,0.01-0.11,0.01-0.17,0.02
		c-0.19,0.03-0.38,0.07-0.58,0.12c-0.01,0-0.01,0.01-0.02,0.01c-0.07,0.02-0.14,0.05-0.2,0.07c-0.19,0.06-0.38,0.12-0.57,0.2
		c-0.02,0.01-0.04,0.02-0.06,0.03c-0.32,0.14-0.65,0.3-0.99,0.49c-0.33,0.19-0.67,0.42-1.01,0.66c-0.1,0.07-0.19,0.14-0.29,0.21
		c-0.28,0.21-0.56,0.44-0.84,0.68c-0.07,0.06-0.14,0.12-0.21,0.18c-0.3,0.26-0.6,0.54-0.9,0.84c-0.03,0.03-0.07,0.07-0.1,0.11
		c-0.44,0.44-0.88,0.91-1.32,1.41c0,0,0,0,0,0c-0.08,0.09-0.16,0.19-0.23,0.29c-0.32,0.38-0.64,0.76-0.95,1.16
		c-0.01,0.01-0.02,0.02-0.03,0.03c-0.35,0.45-0.69,0.92-1.04,1.41c-0.03,0.04-0.06,0.08-0.09,0.12c0,0,0,0,0,0
		c-0.36,0.52-0.72,1.06-1.08,1.61c-0.01,0.02-0.03,0.04-0.04,0.06c-0.09,0.14-0.18,0.3-0.27,0.44c-0.25,0.39-0.49,0.79-0.73,1.2
		c-0.04,0.07-0.09,0.15-0.13,0.23c-0.01-0.01-0.03-0.01-0.04-0.02c-0.33-0.19-0.68-0.36-1.02-0.5c-0.01,0-0.02-0.01-0.03-0.01
		c-0.08-0.03-0.17-0.06-0.25-0.09c-0.24-0.09-0.48-0.19-0.72-0.26c-0.04-0.01-0.08-0.02-0.12-0.03c-0.12-0.03-0.23-0.05-0.35-0.08
		c-0.17-0.04-0.34-0.09-0.51-0.12c-0.08-0.01-0.16-0.02-0.24-0.03c-0.13-0.02-0.25-0.03-0.38-0.04c-0.11-0.01-0.23-0.03-0.34-0.04
		c-0.14-0.01-0.27,0-0.41,0c-0.12,0-0.24-0.01-0.36,0c-0.06,0-0.13,0-0.19,0c-0.23,0.01-0.45,0.04-0.68,0.07
		c-0.08,0.01-0.15,0.01-0.23,0.02c-0.02,0-0.04,0-0.06,0.01c-0.34,0.05-0.68,0.12-1.01,0.21c-0.01,0-0.02,0.01-0.04,0.01
		c-0.19,0.05-0.37,0.13-0.56,0.19c-0.19,0.06-0.39,0.12-0.58,0.2c-0.01,0.01-0.02,0.01-0.03,0.02c-0.39,0.16-0.78,0.36-1.17,0.58
		c-0.37,0.21-0.73,0.46-1.09,0.73c-0.11,0.08-0.21,0.17-0.32,0.25c-0.26,0.21-0.51,0.42-0.75,0.66c-0.06,0.06-0.13,0.11-0.2,0.17
		c-0.06,0.06-0.11,0.12-0.17,0.18c-0.09,0.1-0.19,0.2-0.28,0.3c-0.08,0.09-0.16,0.16-0.24,0.25c-0.14,0.16-0.28,0.33-0.41,0.5
		c-0.03,0.04-0.06,0.07-0.08,0.11c-0.14,0.18-0.28,0.37-0.42,0.56c-0.1,0.14-0.19,0.28-0.28,0.42c-0.01,0.02-0.03,0.05-0.05,0.07
		c-0.01,0.02-0.03,0.04-0.04,0.06c-0.11,0.18-0.23,0.36-0.33,0.55c-0.11,0.18-0.21,0.37-0.31,0.56c0,0.01-0.01,0.01-0.01,0.01
		c0,0.01-0.01,0.01-0.01,0.02c-0.09,0.18-0.18,0.36-0.27,0.54c-0.1,0.21-0.2,0.42-0.29,0.63c-0.01,0.02-0.02,0.04-0.03,0.06
		c-0.01,0.03-0.03,0.07-0.04,0.11c-0.07,0.17-0.14,0.34-0.21,0.51c-0.09,0.25-0.18,0.49-0.27,0.74v0c0,0,0,0,0,0.01
		c-0.1,0.3-0.19,0.6-0.27,0.9c-0.03,0.09-0.04,0.19-0.07,0.28c-0.04,0.15-0.07,0.29-0.11,0.44c-0.03,0.13-0.07,0.26-0.1,0.39
		c-0.02,0.12-0.04,0.24-0.06,0.35c-0.05,0.28-0.1,0.56-0.14,0.85c-0.02,0.12-0.05,0.24-0.06,0.36c-0.01,0.09-0.01,0.19-0.03,0.28
		c-0.04,0.34-0.06,0.67-0.08,1.01c-0.01,0.19-0.03,0.38-0.03,0.58c-0.01,0.4-0.01,0.8,0,1.2c0,0.13,0,0.25,0.01,0.38
		c0.02,0.52,0.07,1.05,0.14,1.57c0.02,0.14,0.05,0.27,0.07,0.41c0.06,0.38,0.12,0.76,0.2,1.13c0.04,0.19,0.09,0.37,0.14,0.55
		c0.08,0.32,0.17,0.64,0.27,0.96c0.06,0.19,0.12,0.38,0.19,0.57c0.11,0.31,0.22,0.61,0.35,0.91c0.08,0.18,0.15,0.36,0.23,0.54
		c0.15,0.31,0.31,0.62,0.47,0.92c0.08,0.15,0.15,0.3,0.24,0.44c0.26,0.44,0.53,0.86,0.83,1.27c2.08,2.8,4.84,6.11,7.65,7.75
		l5.66,3.29c-2.81-1.63-5.56-4.94-7.65-7.75c-0.3-0.4-0.57-0.83-0.83-1.26c-0.08-0.14-0.16-0.29-0.24-0.44
		c-0.16-0.3-0.32-0.6-0.47-0.92c-0.08-0.18-0.16-0.36-0.23-0.54c-0.12-0.3-0.24-0.6-0.35-0.9c-0.07-0.19-0.13-0.38-0.19-0.57
		c-0.1-0.32-0.18-0.63-0.27-0.95c-0.04-0.19-0.1-0.37-0.14-0.56c-0.08-0.37-0.14-0.75-0.2-1.13c-0.02-0.14-0.05-0.28-0.07-0.42
		c-0.07-0.52-0.12-1.04-0.14-1.56c-0.01-0.13,0-0.26-0.01-0.38c-0.01-0.4-0.01-0.8,0-1.2c0-0.19,0.02-0.38,0.03-0.57
		c0.02-0.34,0.05-0.68,0.09-1.01c0.02-0.21,0.05-0.43,0.08-0.64c0.04-0.28,0.09-0.57,0.14-0.85c0.05-0.25,0.1-0.5,0.16-0.74
		c0.03-0.15,0.07-0.29,0.11-0.44c0.1-0.4,0.21-0.79,0.34-1.18c0,0,0-0.01,0-0.01c0.14-0.43,0.3-0.85,0.48-1.26
		c0.02-0.03,0.03-0.07,0.04-0.11c0.18-0.42,0.37-0.83,0.59-1.23c0.01-0.01,0.01-0.01,0.01-0.02c0.22-0.4,0.45-0.8,0.69-1.18
		c0.02-0.02,0.03-0.05,0.05-0.07c0.25-0.37,0.51-0.74,0.78-1.09c0.21-0.27,0.43-0.51,0.65-0.75c0.09-0.1,0.19-0.2,0.28-0.3
		c0.12-0.12,0.25-0.24,0.37-0.35c0.25-0.23,0.5-0.45,0.76-0.66c0.1-0.08,0.21-0.17,0.32-0.25c0.36-0.27,0.72-0.51,1.09-0.73
		c0.38-0.22,0.77-0.41,1.17-0.58c0.2-0.08,0.4-0.14,0.61-0.21c0.19-0.06,0.37-0.14,0.56-0.19c0.37-0.1,0.74-0.18,1.11-0.23
		c0.08-0.01,0.16-0.01,0.24-0.03c0.28-0.03,0.57-0.06,0.85-0.06c0.13,0,0.26,0,0.38,0c0.24,0,0.48,0.02,0.72,0.04
		c0.13,0.01,0.27,0.03,0.4,0.05c0.25,0.04,0.49,0.09,0.73,0.14c0.12,0.03,0.24,0.05,0.36,0.08c0.28,0.08,0.56,0.18,0.84,0.28
		c0.08,0.03,0.17,0.05,0.25,0.09c0.37,0.15,0.73,0.33,1.09,0.53c0.27-0.47,0.55-0.91,0.82-1.36c0.1-0.17,0.21-0.35,0.31-0.52
		c0.37-0.58,0.74-1.13,1.11-1.67c0.03-0.04,0.06-0.08,0.09-0.12c0.35-0.5,0.71-0.98,1.06-1.44c0.31-0.39,0.61-0.76,0.92-1.13
		c0.09-0.11,0.18-0.22,0.27-0.33c0.44-0.5,0.88-0.97,1.32-1.41c0.33-0.34,0.67-0.66,1-0.95c0.07-0.06,0.13-0.11,0.2-0.17
		c0.29-0.25,0.58-0.48,0.86-0.69c0.09-0.07,0.19-0.14,0.28-0.21c0.34-0.25,0.68-0.47,1.01-0.67c0.33-0.19,0.66-0.35,0.99-0.49
		c0.22-0.09,0.43-0.16,0.65-0.23C1119.36,238.97,1119.42,238.94,1119.48,238.92z"/>
	<g>
		<g>
			<path class="st42" d="M1117.66,239.71c1.25-0.72,2.42-1.06,3.47-0.95c4.64,0.49,4.92,9.73,0.59,20.63
				c-3.42,8.62-8.66,20.74-13.01,23.25c-0.08,0.04-0.15,0.08-0.23,0.12c-0.08,0.05-0.15,0.1-0.23,0.14
				c-4.36,2.51-9.65-3.52-13.1-8.18c-4.36-5.89-4.15-15.4,0.47-21.25c1.04-1.31,2.21-2.33,3.46-3.05c2.98-1.72,6.38-1.75,9.31-0.07
				C1111.3,245.32,1114.68,241.43,1117.66,239.71z"/>
		</g>
	</g>
</g>
<g>
	<g class="st33">
		<ellipse class="st34" cx="1170.99" cy="851.26" rx="93" ry="53.69"/>
	</g>
	<g>
		<g>
			<g>
				<path class="st47" d="M1227.4,536.23l-1.02,132.88c3.57,10.49,5.26,21.54,4.97,32.62l-2.56,99.23
					c-0.05,1.87-1.23,3.51-2.98,4.16c-6.14,2.28-20.54,8.55-30.75-3.26c-0.88-1.02-1.33-2.35-1.38-3.7
					c-0.59-14.64-4.57-103.58-15.42-151.8c-11.85-52.65-17.55-89.95-6.58-114.96L1227.4,536.23z"/>
				<path class="st48" d="M1223.65,820.5l-3.5,2.07c-4.73,2.8-10.65,2.59-15.17-0.54l-1.56-1.08c-3.42-2.37-5.39-6.32-5.22-10.48
					l0,0l-26.15-6.95c0,0-13.35-3.89-17.53,1.67c-4.17,5.56,6.95,26.98,36.44,31.16c0,0,4.99,0.7,13.63,10.57
					c5.84,6.68,21.98,4.17,22.81-5.29c0.54-6.12,0.38-14.11,0.2-18.98C1227.54,820.66,1225.37,819.48,1223.65,820.5z"/>
				<path class="st49" d="M1233.21,801.61c-0.03-1.04-1.31-1.54-2-0.76c-2.22,2.51-6.74,5.71-15.22,5.44
					c-10.8-0.34-18.25-3.5-21.73-6.96c-0.72-0.72-1.97-0.15-1.97,0.88v15.92c0,0.51,0.07,1,0.23,1.48
					c1.02,2.93,5.84,12.97,23.68,11.28c0,0,10.65,0.99,16.61-6.57c0.65-0.82,0.92-1.89,0.89-2.94L1233.21,801.61z"/>
			</g>
			<g>
				<path class="st47" d="M1187.03,568.69l-1.02,132.88c3.57,10.49,5.26,21.54,4.97,32.62l-2.56,99.23
					c-0.05,1.87-1.23,3.51-2.98,4.16c-6.14,2.28-20.54,8.55-30.75-3.26c-0.88-1.02-1.33-2.35-1.38-3.7
					c-0.59-14.64-4.57-103.58-15.42-151.8c-11.85-52.65-17.55-89.95-6.58-114.96L1187.03,568.69z"/>
				<path class="st48" d="M1183.07,851.41l-3.68,2.18c-4.97,2.95-11.2,2.73-15.95-0.56l-1.64-1.13c-3.6-2.49-5.67-6.65-5.48-11.02
					l0,0l-27.5-7.31c0,0-14.04-4.09-18.43,1.76c-4.39,5.85,7.31,28.37,38.32,32.76c0,0,5.25,0.73,14.33,11.12
					c6.14,7.02,23.11,4.39,23.99-5.56c0.57-6.44,0.4-14.84,0.21-19.96C1187.16,851.58,1184.87,850.34,1183.07,851.41z"/>
				<path class="st47" d="M1190.64,830.57c-0.03-1.04-1.31-1.54-2-0.76c-2.22,2.51-6.74,5.71-15.22,5.44
					c-10.8-0.34-18.25-3.5-21.73-6.96c-0.72-0.72-1.97-0.15-1.97,0.88v15.92c0,0.51,0.07,1,0.23,1.48
					c1.02,2.93,5.84,12.97,23.68,11.28c0,0,10.65,0.99,16.61-6.57c0.65-0.82,0.92-1.89,0.89-2.94L1190.64,830.57z"/>
			</g>
			<g>
				<path class="st19" d="M1126.46,553.1c0,0,4.99-60.72,1.58-72.87l0,0c-2.76-9.82-3.19-20.15-1.25-30.17l5.25-29.52
					c7.02-25.45,27.6-35.8,27.6-35.8c16.72-8.27,35.85-25.48,55.56-17.47c33.13,13.47,21.49,64.04,9.33,88.01
					c-6.23,12.27-7.66,26.44-3.35,39.51c4.43,13.44,9.32,26.84,11.71,40.84c1.74,10.22,1.35,20.21,0.68,30.3
					c-0.55,8.25-5.56,15.54-13.1,18.93l-55.27,22.73c-3.15,1.29-6.68,1.86-10.31,1.79c-6.27-0.11-11.81-4.01-14.05-9.87
					c-2.04-5.34-3.9-11.95-4.85-19.7c-2.85-0.64-0.61-0.14-3.46-0.78c-1.67,2.78-3.38,3.34-4.81,9.55
					c-1.19-2.92-2.19-2.25-2.26-5.49l-0.15-6.61C1125.11,568.66,1125.5,560.85,1126.46,553.1z"/>
			</g>
			<path class="st50" d="M1163.92,386.8c7.32,0.64,21.56,0.19,27.93-11.6c0,0,0.84-43.74,0.84-43.76c0.17-8.88-4.29-17.64-11.6-22.7
				c-5.37-3.72-12.36-4.67-18.74-4.92c-5.06-0.19-14.18-1.29-17.89,2.94c-1.87,2.12-3.95,10.34-3.95,13.16v44.32
				c0,3.4,3.26,5.85,6.53,4.9c0,0,12.19-1.54,12.34,4.9v7.8C1159.39,384.42,1161.34,386.58,1163.92,386.8z"/>
			<path class="st51" d="M1150.76,312.6c0,0-9.65,24.86,13.75,31.59c0,0,10.82,22.82,24.57,20.48c0,0,24.57-21.94,17.84-39.49
				c0,0,4.97-34.52-40.07-36.86c0,0-10.53-6.44-18.14-0.59C1141.11,293.59,1139.94,306.75,1150.76,312.6z"/>
			<path class="st51" d="M1154.34,352.27l2.22-1.06c1.59-0.76,2.61-2.37,2.61-4.14v-10.05h-4.83V352.27z"/>
			<path class="st50" d="M1142.28,327.15l-4.7,12.72c-0.67,1.81,0.28,3.81,2.1,4.44l3.04,1.05L1142.28,327.15z"/>
			<g>
				<path class="st19" d="M1128.04,480.23L1128.04,480.23c-2.76-9.82-3.19-20.15-1.25-30.17l5.25-29.52
					c1.84-6.65,4.6-12.25,7.68-16.92c5.15,3.49,10.08,7.3,14.59,11.56c-5.25,6.68-8.65,15.71-8.97,28.91
					c-1.25,52.25-6.44,141.74,17.94,164.15c-2.54,0.78-5.27,1.16-8.08,1.14c-6.47-0.05-12.2-4.1-14.48-10.15
					c-2-5.3-14.58-12.88-16.02-6.66c-1.19-2.92-0.92-5.77-1-9l1.58-7.1c-0.18-7.81,0.21-15.62,1.17-23.37
					C1126.46,553.1,1131.45,492.38,1128.04,480.23z"/>
			</g>
			<path class="st50" d="M1090.72,465.36l-82.92-48.12c-0.44-0.24-0.9-0.46-1.37-0.65l-22.79-8.97c-1.75-0.69-3.71,0.28-4.23,2.09
				l0,0c-0.45,1.57,0.36,3.23,1.88,3.84l12.52,5.01c1.3,0.52,1.97,1.94,1.58,3.29c-1.25,4.32-3.06,13.45,2.53,17.4
				c3.83,2.7,7.66,5.06,10.48,6.71c2.81,1.65,5.92,2.67,9.16,3.04l7.54,0.86c4.58,0.52,8.87,2.49,12.25,5.62l36.04,34.45
				L1090.72,465.36z"/>
			<path class="st19" d="M1155.44,387.48c0,0-23.69,3.51-33.79,19.31c-8.93,13.98-33.35,56.6-33.35,56.6l-4.17-1.76
				c0,0-13.38,15.58-13.16,27.64l21.72,11.41c0,0,8.78,7.46,24.57-17.55c15.8-25.01,36.86-61.87,36.86-61.87
				S1172.11,397.14,1155.44,387.48z"/>
			<path class="st52" d="M1087.28,459.73c0,0-14.33,15.5-16.67,31.59l-14.92-10.53c0,0,1.17-22.82,17.55-29.54L1087.28,459.73z"/>
			<path class="st53" d="M1157.31,314.05c0.04-0.79,0.7-1.42,1.5-1.42c4.6-0.01,20.35,0.99,43.58,13.43
				c3.02,1.62-1.32,14.48-8.34,20.18s-21.5-15.8-21.5-15.8S1156.63,329,1157.31,314.05z"/>
			<path class="st53" d="M1200.98,311.91c-0.78-2.55-6.94-19.28-33.69-20.3c0,0-9.59-6.96-18.15-1.2c-0.97,0.65-0.81,2.15,0.28,2.56
				c3.07,1.14,8.6,2.91,12.93,2.76c2.43-0.09,4.81,0.58,6.82,1.96c7.12,4.87,22.96,14.95,31.57,14.57
				C1200.91,312.25,1201.03,312.08,1200.98,311.91z"/>
		</g>
	</g>
</g>
</svg>
